<svg id="adobe-xd-1" xmlns="http://www.w3.org/2000/svg" width="109.362" height="106.628" viewBox="0 0 109.362 106.628">
  <path id="Path_5120" data-name="Path 5120" d="M90,106.628H19.366A19.349,19.349,0,0,1,0,87.262v-67.9A19.349,19.349,0,0,1,19.366,0H90a19.349,19.349,0,0,1,19.366,19.366v67.9A19.349,19.349,0,0,1,90,106.628Z" fill="#ff26be"/>
  <path id="Path_5121" data-name="Path 5121" d="M187.905,201.711H120.74a16.569,16.569,0,0,1-16.54-16.54V120.74a16.569,16.569,0,0,1,16.54-16.54h67.122a16.538,16.538,0,0,1,16.54,16.54v64.388a16.513,16.513,0,0,1-16.5,16.584Z" transform="translate(-99.642 -99.642)" fill="#2e001f"/>
  <path id="Path_5122" data-name="Path 5122" d="M489.516,616.763l12.76,24.515c.228.363.092.731-.276.731H494.07a.894.894,0,0,1-.958-.591c-2.918-6.015-5.879-12.03-8.933-18.5h-.092c-2.734,6.107-5.744,12.533-8.657,18.548a.879.879,0,0,1-.822.5H467.1c-.455,0-.5-.363-.271-.639l12.485-23.788-12.074-24.06a.368.368,0,0,1,.271-.639h7.839c.455,0,.639.092.818.5,2.87,6.015,5.787,12.214,8.521,18.272h.092c2.642-6.015,5.56-12.257,8.386-18.228.227-.363.363-.591.822-.591h7.336c.363,0,.5.276.276.639Zm15,7.428c0-10.617,7.065-18.911,18.272-18.911a20.077,20.077,0,0,1,2.371.092V593.3a.454.454,0,0,1,.455-.455h7.2c.363,0,.455.136.455.363V635.04a32.544,32.544,0,0,0,.227,4.466c0,.276-.092.363-.363.5a27.127,27.127,0,0,1-11.667,2.642c-9.891.039-16.955-6.063-16.951-18.46Zm20.639-11.662a6.85,6.85,0,0,0-2.642-.455c-5.744,0-9.751,4.418-9.751,11.759,0,8.386,4.1,11.758,9.252,11.758a8.542,8.542,0,0,0,3.145-.5V612.529Z" transform="translate(-446.274 -566.868)" fill="#ffd9f2"/>
</svg>
