<svg xmlns="http://www.w3.org/2000/svg" width="78" height="71.272" viewBox="0 0 78 71.272">
  <g id="android-logomark" transform="translate(-32.9 -58.714)">
    <path id="Path_5133" data-name="Path 5133" d="M38.794,337.623a3.8,3.8,0,1,0,3.371,3.774c-.019-2.123-1.375-3.774-3.371-3.774m-.452-2.339a4.463,4.463,0,0,1,3.616,1.808V335.52h2.486v11.775H42.523a.579.579,0,0,1-.565-.59v-.983a4.435,4.435,0,0,1-3.616,1.808c-3.088,0-5.442-2.752-5.442-6.113s2.335-6.133,5.442-6.133m8.926.236h2.486v1.592a3.822,3.822,0,0,1,3.427-1.828c2.618,0,4.312,1.926,4.312,4.914v7.1h-1.9a.579.579,0,0,1-.565-.59v-6.074c0-1.867-.9-2.988-2.354-2.988-1.638,0-2.919,1.337-2.919,3.853v5.8h-1.9a.579.579,0,0,1-.565-.59Zm18.059,2.1A3.8,3.8,0,1,0,68.7,341.4a3.471,3.471,0,0,0-3.371-3.774m-.452-2.339a4.463,4.463,0,0,1,3.616,1.808v-7.47h2.486v17.672h-1.9a.579.579,0,0,1-.565-.59v-.983a4.435,4.435,0,0,1-3.616,1.808c-3.088,0-5.442-2.752-5.442-6.113s2.335-6.133,5.423-6.133m8.926.236h2.486v2.1a3.207,3.207,0,0,1,2.975-2.221,3.986,3.986,0,0,1,.96.1v2.654a3.849,3.849,0,0,0-1.243-.216c-1.412,0-2.712,1.258-2.712,3.6v5.74h-1.9a.579.579,0,0,1-.565-.59Zm13.107,9.593A3.729,3.729,0,1,0,83.5,341.4a3.478,3.478,0,0,0,3.408,3.715m0,2.418a6.128,6.128,0,1,1,5.913-6.113A6.221,6.221,0,0,1,91.1,345.77a5.7,5.7,0,0,1-4.186,1.761m7.928-12.01h2.486v11.775h-1.9a.579.579,0,0,1-.565-.59Zm1.243-2.575A1.73,1.73,0,0,1,94.4,331.2a1.668,1.668,0,1,1,1.676,1.749m9.171,4.678a3.8,3.8,0,1,0,3.371,3.774c-.038-2.123-1.356-3.774-3.371-3.774m-.452-2.339a4.463,4.463,0,0,1,3.616,1.808v-7.47H110.9v17.672H109a.579.579,0,0,1-.565-.59v-.983a4.435,4.435,0,0,1-3.616,1.808c-3.088,0-5.442-2.752-5.442-6.113s2.335-6.133,5.423-6.133" transform="translate(0 -217.545)"/>
    <path id="Path_5134" data-name="Path 5134" d="M91.008,72.566l6.5-11.735a1.444,1.444,0,0,0-.49-1.926,1.319,1.319,0,0,0-1.845.511L88.6,71.289a39.128,39.128,0,0,0-33.366,0L48.66,59.416a1.319,1.319,0,0,0-1.845-.511,1.444,1.444,0,0,0-.49,1.927l6.5,11.735a40.03,40.03,0,0,0-19.922,32h77.955a40.179,40.179,0,0,0-19.846-32ZM53.952,92.97a3.384,3.384,0,1,1,3.239-3.381A3.312,3.312,0,0,1,53.952,92.97Zm35.889,0a3.384,3.384,0,1,1,3.239-3.381A3.312,3.312,0,0,1,89.841,92.97Z" transform="translate(0 0)" fill="#3ddc84"/>
  </g>
</svg>
