<svg id="availableOnPlayStore" xmlns="http://www.w3.org/2000/svg" xmlns:xlink="http://www.w3.org/1999/xlink" width="138.585" height="41.073" viewBox="0 0 138.585 41.073">
  <defs>
    <linearGradient id="linear-gradient" x1="-1.559" y1="3.462" x2="-1.559" y2="3.387" gradientUnits="objectBoundingBox">
      <stop offset="0" stop-color="#1a1a1a" stop-opacity="0.102"/>
      <stop offset="0.123" stop-color="#212121" stop-opacity="0.153"/>
      <stop offset="0.308" stop-color="#353535" stop-opacity="0.227"/>
      <stop offset="0.532" stop-color="#575757" stop-opacity="0.318"/>
      <stop offset="0.783" stop-color="#858585" stop-opacity="0.42"/>
      <stop offset="1" stop-color="#b3b3b3" stop-opacity="0.51"/>
    </linearGradient>
  </defs>
  <path id="Path_5056" data-name="Path 5056" d="M147.433,45.99a3.934,3.934,0,0,1-3.938,3.934H14.624a3.939,3.939,0,0,1-3.943-3.934V14.619a3.944,3.944,0,0,1,3.943-3.939H143.493a3.938,3.938,0,0,1,3.938,3.939V45.99Z" transform="translate(-9.767 -9.766)" fill="#fff"/>
  <path id="Path_5057" data-name="Path 5057" d="M133.728,41.073H4.857A4.858,4.858,0,0,1,0,36.224V4.854A4.861,4.861,0,0,1,4.857,0H133.727a4.863,4.863,0,0,1,4.857,4.854v31.37a4.858,4.858,0,0,1-4.856,4.849Z" fill="#a6a6a6"/>
  <path id="Path_5058" data-name="Path 5058" d="M147.433,45.99a3.934,3.934,0,0,1-3.938,3.934H14.624a3.939,3.939,0,0,1-3.943-3.934V14.619a3.944,3.944,0,0,1,3.943-3.939H143.493a3.938,3.938,0,0,1,3.938,3.939V45.99Z" transform="translate(-9.767 -9.766)"/>
  <path id="Path_5059" data-name="Path 5059" d="M171.31,88.539a5.954,5.954,0,0,1,2.836-5,6.1,6.1,0,0,0-4.8-2.6c-2.02-.213-3.98,1.209-5.009,1.209-1.05,0-2.635-1.188-4.343-1.153a6.394,6.394,0,0,0-5.382,3.283c-2.327,4.029-.592,9.951,1.638,13.208,1.115,1.6,2.419,3.376,4.125,3.313,1.669-.068,2.292-1.063,4.307-1.063,2,0,2.581,1.063,4.321,1.023,1.791-.028,2.919-1.6,4-3.212a13.169,13.169,0,0,0,1.827-3.721A5.76,5.76,0,0,1,171.31,88.539ZM168.023,78.8a5.861,5.861,0,0,0,1.341-4.2,5.97,5.97,0,0,0-3.86,2,5.577,5.577,0,0,0-1.376,4.045,4.931,4.931,0,0,0,3.895-1.842Z" transform="translate(-140.366 -68.218)" fill="#fff"/>
  <path id="Path_5060" data-name="Path 5060" d="M824.943,0H755.916l27.037,41.073h41.99a4.861,4.861,0,0,0,4.857-4.852V4.854A4.862,4.862,0,0,0,824.943,0Z" transform="translate(-691.215)" fill="url(#linear-gradient)"/>
  <g id="Group_4061" data-name="Group 4061" transform="translate(43.58 18.487)">
    <path id="Path_5061" data-name="Path 5061" d="M520.7,229.861h-2.333l-1.278-4.015h-4.441l-1.217,4.015H509.16l4.4-13.669h2.718Zm-4-5.7-1.155-3.569q-.183-.547-.689-2.575h-.041q-.2.872-.649,2.575l-1.136,3.569Zm15.292.65a5.581,5.581,0,0,1-1.366,3.974,4.005,4.005,0,0,1-3.038,1.3,3.041,3.041,0,0,1-2.814-1.4v5.171h-2.19V223.244q0-1.579-.081-3.24h1.926l.122,1.562h.041a3.9,3.9,0,0,1,6.236-.387A5.451,5.451,0,0,1,532,224.812Zm-2.231.08a4.063,4.063,0,0,0-.649-2.374,2.243,2.243,0,0,0-1.906-.973,2.277,2.277,0,0,0-1.47.537,2.491,2.491,0,0,0-.862,1.41,2.859,2.859,0,0,0-.1.667V225.8a2.637,2.637,0,0,0,.659,1.816,2.189,2.189,0,0,0,1.713.74,2.244,2.244,0,0,0,1.926-.953,4.2,4.2,0,0,0,.69-2.515Zm13.567-.08a5.582,5.582,0,0,1-1.366,3.974,4.008,4.008,0,0,1-3.039,1.3,3.042,3.042,0,0,1-2.814-1.4v5.171h-2.19V223.244q0-1.579-.081-3.24h1.926l.122,1.562h.041a3.9,3.9,0,0,1,6.237-.387A5.455,5.455,0,0,1,543.332,224.812Zm-2.232.08a4.063,4.063,0,0,0-.65-2.374,2.24,2.24,0,0,0-1.9-.973,2.286,2.286,0,0,0-1.472.537,2.49,2.49,0,0,0-.861,1.41,2.926,2.926,0,0,0-.1.667V225.8a2.646,2.646,0,0,0,.658,1.816,2.193,2.193,0,0,0,1.715.74,2.242,2.242,0,0,0,1.926-.953,4.2,4.2,0,0,0,.69-2.515Zm14.906,1.135a3.651,3.651,0,0,1-1.215,2.84,5.386,5.386,0,0,1-3.723,1.2,6.5,6.5,0,0,1-3.539-.851l.506-1.825a6.092,6.092,0,0,0,3.164.852,2.984,2.984,0,0,0,1.926-.558,1.822,1.822,0,0,0,.691-1.489,1.909,1.909,0,0,0-.569-1.4,5.276,5.276,0,0,0-1.886-1.054q-3.59-1.339-3.591-3.915a3.457,3.457,0,0,1,1.268-2.758,5.012,5.012,0,0,1,3.357-1.075,6.632,6.632,0,0,1,3.1.649l-.549,1.785a5.425,5.425,0,0,0-2.626-.629,2.671,2.671,0,0,0-1.812.568,1.626,1.626,0,0,0-.549,1.239,1.674,1.674,0,0,0,.63,1.338,7.1,7.1,0,0,0,1.986,1.054,6.735,6.735,0,0,1,2.6,1.662A3.463,3.463,0,0,1,556.006,226.027Zm7.259-4.379h-2.414v4.785q0,1.826,1.278,1.824a3.851,3.851,0,0,0,.973-.1l.061,1.663a4.959,4.959,0,0,1-1.7.242,2.625,2.625,0,0,1-2.029-.792,3.883,3.883,0,0,1-.73-2.657v-4.968h-1.438V220H558.7v-1.8l2.151-.649V220h2.414Zm10.868,3.2a5.407,5.407,0,0,1-1.3,3.731,4.628,4.628,0,0,1-3.609,1.5,4.411,4.411,0,0,1-3.458-1.438,5.243,5.243,0,0,1-1.288-3.63,5.363,5.363,0,0,1,1.328-3.751,4.6,4.6,0,0,1,3.581-1.46,4.5,4.5,0,0,1,3.487,1.44A5.174,5.174,0,0,1,574.134,224.852Zm-2.27.05a4.413,4.413,0,0,0-.586-2.325,2.168,2.168,0,0,0-1.968-1.174,2.2,2.2,0,0,0-2.008,1.174,4.487,4.487,0,0,0-.588,2.366,4.4,4.4,0,0,0,.588,2.326,2.246,2.246,0,0,0,3.957-.02A4.43,4.43,0,0,0,571.864,224.9Zm9.39-2.971a3.8,3.8,0,0,0-.69-.061,2.067,2.067,0,0,0-1.785.873,3.288,3.288,0,0,0-.546,1.946v5.171h-2.19v-6.752q0-1.7-.064-3.1h1.907l.08,1.886h.061a3.382,3.382,0,0,1,1.095-1.562,2.648,2.648,0,0,1,1.583-.528,3.5,3.5,0,0,1,.547.04Zm9.794,2.536a5.135,5.135,0,0,1-.08.993H584.4a2.858,2.858,0,0,0,.953,2.233,3.259,3.259,0,0,0,2.149.688,7.267,7.267,0,0,0,2.658-.465l.343,1.519a8.218,8.218,0,0,1-3.3.609,4.791,4.791,0,0,1-3.6-1.348,4.982,4.982,0,0,1-1.307-3.62,5.646,5.646,0,0,1,1.218-3.71,4.2,4.2,0,0,1,3.446-1.581,3.673,3.673,0,0,1,3.226,1.581A5.32,5.32,0,0,1,591.049,224.467Zm-2.088-.568a2.965,2.965,0,0,0-.425-1.683,1.912,1.912,0,0,0-1.744-.914,2.076,2.076,0,0,0-1.743.893,3.27,3.27,0,0,0-.648,1.7Z" transform="translate(-509.16 -215.99)" fill="#fff"/>
  </g>
  <g id="Group_4062" data-name="Group 4062" transform="translate(44.396 6.731)">
    <path id="Path_5062" data-name="Path 5062" d="M524.361,85.7h-1.147l-.628-1.973H520.4l-.6,1.973h-1.116l2.163-6.718h1.335ZM522.4,82.9l-.568-1.754c-.06-.18-.169-.6-.339-1.265h-.021c-.07.289-.169.708-.319,1.265l-.558,1.754Zm7.373-2.043L527.935,85.7h-1.047l-1.775-4.844h1.156l.828,2.562c.14.428.259.837.348,1.225h.03c.08-.348.2-.757.348-1.225l.818-2.562Zm3.905,4.844-.08-.558h-.03a1.652,1.652,0,0,1-1.415.668,1.41,1.41,0,0,1-1.485-1.426c0-1.2,1.036-1.814,2.831-1.814v-.089c0-.638-.339-.957-1.007-.957a2.261,2.261,0,0,0-1.265.359L531,81.178a3.1,3.1,0,0,1,1.665-.419c1.265,0,1.9.668,1.9,2v1.784a7.193,7.193,0,0,0,.07,1.157Zm-.15-2.413c-1.2,0-1.794.29-1.794.977a.686.686,0,0,0,.737.757,1.03,1.03,0,0,0,1.057-.986Zm3.446-3.229a.644.644,0,1,1,.678-.648A.632.632,0,0,1,536.971,80.061Zm.559,5.642h-1.076V80.859h1.076Zm2.989,0h-1.076V78.636h1.076Zm4.575,0-.08-.558h-.03a1.652,1.652,0,0,1-1.415.668,1.41,1.41,0,0,1-1.485-1.426c0-1.2,1.036-1.814,2.831-1.814v-.089c0-.638-.339-.957-1.007-.957a2.262,2.262,0,0,0-1.265.359l-.22-.709a3.1,3.1,0,0,1,1.665-.419c1.265,0,1.9.668,1.9,2v1.784a7.463,7.463,0,0,0,.069,1.157h-.967Zm-.15-2.413c-1.2,0-1.794.29-1.794.977a.686.686,0,0,0,.737.757,1.03,1.03,0,0,0,1.057-.986Zm5.409,2.523a1.644,1.644,0,0,1-1.523-.858h-.021l-.062.748h-.917c.03-.388.04-.828.04-1.305V78.636h1.077v2.931h.021a1.662,1.662,0,0,1,1.545-.807c1.167,0,1.984,1,1.984,2.452A2.331,2.331,0,0,1,550.352,85.812Zm-.219-4.207a1.238,1.238,0,0,0-1.186,1.286v.847a1.186,1.186,0,0,0,1.168,1.216c.806,0,1.286-.657,1.286-1.7,0-.977-.5-1.645-1.268-1.645Zm5.03,4.1h-1.075V78.636h1.075Zm5.859-2.163h-3.231a1.39,1.39,0,0,0,1.525,1.435,3.634,3.634,0,0,0,1.305-.229l.167.748a4.038,4.038,0,0,1-1.624.3,2.249,2.249,0,0,1-2.413-2.441,2.366,2.366,0,0,1,2.291-2.6,2.4,2.4,0,0,1,1.978,2.791Zm-.987-.767c0-.748-.379-1.276-1.067-1.276a1.278,1.278,0,0,0-1.177,1.276Zm7.512,3.04a2.305,2.305,0,0,1-2.333-2.492,2.359,2.359,0,0,1,2.414-2.562,2.288,2.288,0,0,1,2.333,2.483A2.374,2.374,0,0,1,567.547,85.812Zm.041-4.267c-.778,0-1.276.727-1.276,1.744,0,1,.508,1.725,1.265,1.725s1.264-.778,1.264-1.745c0-.986-.5-1.723-1.254-1.723Zm8.159,4.157h-1.075V82.921c0-.857-.329-1.286-.977-1.286a1.119,1.119,0,0,0-1.077,1.186V85.7h-1.075V82.243c0-.428-.011-.887-.04-1.386h.947l.05.748h.03a1.738,1.738,0,0,1,1.534-.847c1.016,0,1.683.778,1.683,2.043v2.9Zm7.043-4.037h-1.184v2.352q0,.9.627.9a2.131,2.131,0,0,0,.479-.05l.03.818a2.4,2.4,0,0,1-.836.12c-.848,0-1.355-.468-1.355-1.695V81.666h-.707v-.807h.707v-.887l1.056-.319v1.206h1.184Zm5.7,4.037h-1.078V82.942c0-.867-.329-1.305-.977-1.305a1.054,1.054,0,0,0-1.075,1.146V85.7h-1.077V78.636h1.077v2.91h.021a1.63,1.63,0,0,1,1.455-.788c1.026,0,1.654.8,1.654,2.063Zm5.5-2.163h-3.23a1.389,1.389,0,0,0,1.524,1.435,3.63,3.63,0,0,0,1.305-.229l.168.748a4.043,4.043,0,0,1-1.625.3,2.249,2.249,0,0,1-2.413-2.441,2.366,2.366,0,0,1,2.291-2.6,2.035,2.035,0,0,1,2.014,2.3A2.091,2.091,0,0,1,593.991,83.539ZM593,82.772c0-.748-.378-1.276-1.066-1.276a1.277,1.277,0,0,0-1.177,1.276Z" transform="translate(-518.688 -78.636)" fill="#fff"/>
  </g>
</svg>
