<svg xmlns="http://www.w3.org/2000/svg" xmlns:xlink="http://www.w3.org/1999/xlink" width="151.171" height="61.562" viewBox="0 0 151.171 61.562">
  <defs>
    <filter id="Path_5044" x="0" y="0" width="151.171" height="61.562" filterUnits="userSpaceOnUse">
      <feOffset dy="3" input="SourceAlpha"/>
      <feGaussianBlur stdDeviation="3" result="blur"/>
      <feFlood flood-color="#00646b" flood-opacity="0.161"/>
      <feComposite operator="in" in2="blur"/>
      <feComposite in="SourceGraphic"/>
    </filter>
    <clipPath id="clip-path">
      <path id="Path_5046" data-name="Path 5046" d="M482.1,418.816l-6-3.467-11.583-6.688c-.643-.371-1.284-.146-1.284.63v27.247c0,.582.458.832,1.017.51l11.85-6.842,6-3.466,5.772-3.332c.677-.391.612-.928.041-1.235S482.1,418.816,482.1,418.816Z" transform="translate(-463.228 -408.486)"/>
    </clipPath>
    <linearGradient id="linear-gradient" x1="1.441" y1="1.519" x2="1.441" y2="1.436" gradientUnits="objectBoundingBox">
      <stop offset="0" stop-color="#257cb0"/>
      <stop offset="0.286" stop-color="#4a93b5"/>
      <stop offset="0.767" stop-color="#78bcbb"/>
      <stop offset="1" stop-color="#89cfbd"/>
    </linearGradient>
    <linearGradient id="linear-gradient-2" x1="1.103" y1="2.982" x2="1.187" y2="2.982" gradientUnits="objectBoundingBox">
      <stop offset="0" stop-color="#52c1ad"/>
      <stop offset="1" stop-color="#dee89a"/>
    </linearGradient>
    <linearGradient id="linear-gradient-3" x1="1.145" y1="1.94" x2="1.145" y2="1.857" gradientUnits="objectBoundingBox">
      <stop offset="0" stop-color="#ec413d"/>
      <stop offset="0.167" stop-color="#da4452"/>
      <stop offset="0.575" stop-color="#b0487a"/>
      <stop offset="0.862" stop-color="#954a92"/>
      <stop offset="1" stop-color="#8a4a9d"/>
    </linearGradient>
    <linearGradient id="linear-gradient-4" x1="0.704" y1="4.18" x2="0.704" y2="4.097" gradientUnits="objectBoundingBox">
      <stop offset="0" stop-color="#f58879"/>
      <stop offset="0.119" stop-color="#f69079"/>
      <stop offset="0.713" stop-color="#fcb877"/>
      <stop offset="1" stop-color="#fec874"/>
    </linearGradient>
  </defs>
  <g id="availableOnGooglePlay" transform="translate(6.14 5.186)">
    <g transform="matrix(1, 0, 0, 1, -6.14, -5.19)" filter="url(#Path_5044)">
      <path id="Path_5044-2" data-name="Path 5044" d="M136.031,38.488a5.887,5.887,0,0,1-5.886,5.887H8.747A5.887,5.887,0,0,1,2.86,38.488V6.7A5.888,5.888,0,0,1,8.747.814h121.4A5.887,5.887,0,0,1,136.031,6.7V38.488h0Z" transform="translate(6.14 5.19)"/>
    </g>
    <g id="Group_4057" data-name="Group 4057" transform="translate(12.849 9.659)" clip-path="url(#clip-path)">
      <path id="Path_5045" data-name="Path 5045" d="M463.24,387.346v29.5l14.876-14.75Z" transform="translate(-463.24 -387.805)" fill="url(#linear-gradient)"/>
    </g>
    <g id="Group_4058" data-name="Group 4058" transform="translate(12.849 9.659)" clip-path="url(#clip-path)">
      <path id="Path_5047" data-name="Path 5047" d="M482.111,393.3l-6-3.467L463.24,382.4v.107l14.876,14.75Z" transform="translate(-463.24 -382.968)" fill="url(#linear-gradient-2)"/>
    </g>
    <g id="Group_4059" data-name="Group 4059" transform="translate(12.849 9.659)" clip-path="url(#clip-path)">
      <path id="Path_5049" data-name="Path 5049" d="M463.24,1081.918v.107l12.866-7.429,6-3.467-3.995-3.961Z" transform="translate(-463.24 -1052.877)" fill="url(#linear-gradient-3)"/>
    </g>
    <g id="Group_4060" data-name="Group 4060" transform="translate(12.849 9.659)" clip-path="url(#clip-path)">
      <path id="Path_5051" data-name="Path 5051" d="M1152.845,884.566l-4,3.962,4,3.961,6.863-3.962Z" transform="translate(-1133.974 -874.237)" fill="url(#linear-gradient-4)"/>
    </g>
    <path id="Path_5053" data-name="Path 5053" d="M1928.66,751.533a3.711,3.711,0,0,1-1.53-.309,2.883,2.883,0,0,1-1.163-.951h-.094a11.527,11.527,0,0,1,.094,1.425v3.53h-1.3V742.8h1.056l.18,1.174h.063a3.021,3.021,0,0,1,1.167-1.017,3.544,3.544,0,0,1,1.526-.313,3.172,3.172,0,0,1,2.634,1.167,6.212,6.212,0,0,1-.015,6.556,3.177,3.177,0,0,1-2.619,1.17Zm-.188-7.789a2.3,2.3,0,0,0-1.9.728,3.749,3.749,0,0,0-.6,2.317v.289a4.292,4.292,0,0,0,.6,2.587,2.292,2.292,0,0,0,1.933.779,2.012,2.012,0,0,0,1.742-.9,4.273,4.273,0,0,0,.63-2.482,4.114,4.114,0,0,0-.63-2.462A2.074,2.074,0,0,0,1928.472,743.744Zm6.758,7.632h-1.3V739.2h1.3Zm7.471,0-.259-1.221h-.063a3.6,3.6,0,0,1-1.28,1.092,3.9,3.9,0,0,1-1.593.286,2.867,2.867,0,0,1-2-.657,2.4,2.4,0,0,1-.724-1.871q0-2.6,4.156-2.724l1.457-.047V745.7a2.174,2.174,0,0,0-.435-1.491,1.786,1.786,0,0,0-1.389-.482,5.664,5.664,0,0,0-2.427.657l-.4-.994a6.088,6.088,0,0,1,1.39-.54,6.013,6.013,0,0,1,1.514-.2,3.269,3.269,0,0,1,2.274.681,2.845,2.845,0,0,1,.739,2.184v5.855h-.963Zm-2.936-.915a2.64,2.64,0,0,0,1.906-.665,2.464,2.464,0,0,0,.693-1.863v-.775l-1.3.054a4.726,4.726,0,0,0-2.235.482,1.452,1.452,0,0,0-.685,1.327,1.335,1.335,0,0,0,.427,1.072A1.769,1.769,0,0,0,1939.765,750.46Zm4.653-7.664h1.393l1.879,4.892a18.689,18.689,0,0,1,.767,2.419h.063q.1-.4.426-1.366t2.125-5.945h1.394l-3.687,9.769a4.87,4.87,0,0,1-1.28,2.056,2.721,2.721,0,0,1-1.8.606,5.244,5.244,0,0,1-1.175-.133v-1.041a4.536,4.536,0,0,0,.963.094,1.985,1.985,0,0,0,1.91-1.5l.477-1.221Zm-39.828.8a2.923,2.923,0,0,1-.234,4.97,1.263,1.263,0,0,0-.5.88.984.984,0,0,0,.467.771l.646.5a3.124,3.124,0,0,1,1.506,2.513c0,1.687-1.633,3.391-4.719,3.391-2.6,0-3.858-1.238-3.858-2.566a2.582,2.582,0,0,1,1.382-2.189,7.736,7.736,0,0,1,3.427-.826,1.878,1.878,0,0,1-.538-1.219,1.621,1.621,0,0,1,.179-.7c-.2.018-.4.036-.575.036a2.837,2.837,0,0,1-2.978-2.817,3.227,3.227,0,0,1,1.148-2.4,4.892,4.892,0,0,1,3.213-.987h3.7l-1.148.646h-1.112Zm-1.274,7.968a2.778,2.778,0,0,0-.412-.019,7.18,7.18,0,0,0-1.884.289,2.015,2.015,0,0,0-1.544,1.848c0,1.273,1.239,2.19,3.159,2.19,1.721,0,2.638-.827,2.638-1.939C1905.271,753.014,1904.679,752.531,1903.315,751.562Zm.521-3.41a1.815,1.815,0,0,0,.448-1.31c0-1.292-.771-3.3-2.26-3.3a1.676,1.676,0,0,0-1.256.592,2.073,2.073,0,0,0-.4,1.328c0,1.2.7,3.194,2.244,3.194A1.836,1.836,0,0,0,1903.835,748.152Zm-10.543,3.123a4.228,4.228,0,0,1-4.371-4.229,4.439,4.439,0,0,1,4.641-4.353,4.188,4.188,0,0,1,4.281,4.228A4.377,4.377,0,0,1,1893.292,751.275Zm2.239-1.451a3.241,3.241,0,0,0,.538-1.989c0-1.577-.752-4.586-2.974-4.586a2.493,2.493,0,0,0-1.612.61,2.71,2.71,0,0,0-.825,2.186c0,1.772.878,4.692,3.046,4.692A2.289,2.289,0,0,0,1895.531,749.823Zm-11.949,1.451a4.228,4.228,0,0,1-4.372-4.229,4.44,4.44,0,0,1,4.641-4.353,4.188,4.188,0,0,1,4.281,4.228A4.377,4.377,0,0,1,1883.582,751.275Zm2.24-1.451a3.247,3.247,0,0,0,.538-1.989c0-1.577-.753-4.586-2.975-4.586a2.5,2.5,0,0,0-1.612.61,2.71,2.71,0,0,0-.824,2.186c0,1.772.877,4.692,3.046,4.692A2.291,2.291,0,0,0,1885.822,749.823Zm-7.98,1.17-2.576.594a19.088,19.088,0,0,1-2.971.305c-4.972,0-6.863-3.656-6.863-6.521,0-3.494,2.683-6.735,7.277-6.735a10.374,10.374,0,0,1,2.755.378,7.025,7.025,0,0,1,2.378,1.117l-1.5,1.423-.63.144.45-.721a5.148,5.148,0,0,0-3.854-1.693,4.975,4.975,0,0,0-4.99,5.314,6.37,6.37,0,0,0,6.376,6.573,5.364,5.364,0,0,0,2.288-.451v-2.9l-2.719.144,1.44-.775h3.819l-.468.45a.421.421,0,0,0-.181.288c-.019.162-.035.685-.035.865v2.2Z" transform="translate(-1822.16 -721.815)" fill="#f9f9f9"/>
    <path id="Path_5054" data-name="Path 5054" d="M3760.047,732.392c-.594-.054-.719-.162-.719-.865V721.333c0-.039.006-.079.01-.116.073-.63.252-.738.812-1.063h-2.577l-1.351.649h1.377v11.121c0,.359-.071.414-.485.954h3.188l.667-.4c-.306-.037-.613-.055-.92-.091Zm7.329.166c-.2.107-.393.233-.589.322a4.168,4.168,0,0,1-1.737.34,3.824,3.824,0,0,1-2.379-.7,4.629,4.629,0,0,1-1.823-3.774,4.054,4.054,0,0,1,4.1-4.131,3.474,3.474,0,0,1,1.843.5,2.961,2.961,0,0,1,1.251,1.77l-4.2,1.7-1.378.107c.447,2.272,1.985,3.594,3.685,3.594a4.624,4.624,0,0,0,2.183-.625Zm-1.681-5.331c.34-.125.519-.232.519-.483a1.775,1.775,0,0,0-1.771-1.538,2.2,2.2,0,0,0-2.057,2.486c0,.3.036.626.055.949l3.255-1.414Zm3.408-2.488v1.18h-.144v-1.18h-.391v-.122h.924v.122Zm1.609,1.18v-1.191h-.007l-.364,1.191h-.112l-.366-1.191h0v1.191h-.13v-1.3h.223l.332,1.053h0l.327-1.053h.226v1.3Z" transform="translate(-3671.924 -703.732)" fill="#f9f9f9"/>
    <path id="Path_5055" data-name="Path 5055" d="M1870.393,409.022h-.9a5.919,5.919,0,0,0-.255-1.046h-1.292a5.411,5.411,0,0,0-.263,1.046h-.842q0-.109.653-1.79a14.064,14.064,0,0,0,.653-1.851h1.057a15.411,15.411,0,0,0,.591,1.825A15.985,15.985,0,0,1,1870.393,409.022Zm-1.292-1.58a15.7,15.7,0,0,1-.478-1.561h-.045q0,.109-.5,1.561Zm4.9,1.58h-.69a6.835,6.835,0,0,0-.769-1.211,6.679,6.679,0,0,1-.917-1.58h-.045a9.851,9.851,0,0,1,.07,1.108q0,.691.039,1.684H1871q.041-.867.042-1.9,0-1.021-.042-1.737h.831a5.26,5.26,0,0,0,.691,1.183,6.958,6.958,0,0,1,.845,1.491h.042a10.52,10.52,0,0,1-.067-1.119q0-.758-.039-1.555h.7q-.039.694-.039,1.737T1874,409.022Zm4.054-1.947a2.064,2.064,0,0,1-.509,1.387,1.778,1.778,0,0,1-1.427.593q-.414,0-1.141-.034.037-.845.037-1.9,0-1.018-.037-1.737h.49q.12,0,.358-.008t.311-.008a1.885,1.885,0,0,1,1.464.5A1.739,1.739,0,0,1,1878.053,407.075Zm-.763.12a1.35,1.35,0,0,0-.313-.9,1.188,1.188,0,0,0-.957-.368,2.914,2.914,0,0,0-.33.025q.027.56.028,1.169,0,.669.028,1.326a1.845,1.845,0,0,0,.364.036,1.056,1.056,0,0,0,.891-.374A1.441,1.441,0,0,0,1877.289,407.2Zm4.5,1.826h-.828a5.487,5.487,0,0,0-.5-1.222.652.652,0,0,0-.559-.232l-.311,0q0,.719.025,1.452h-.777q.036-.845.036-1.9,0-1.018-.036-1.737h.484c.056,0,.173,0,.351-.008s.343-.008.494-.008q1.284,0,1.284.878a.985.985,0,0,1-.733.971v.042a.873.873,0,0,1,.5.44A9.751,9.751,0,0,1,1881.791,409.022Zm-1.049-2.573q0-.556-.716-.557a2.461,2.461,0,0,0-.464.039q.031.434.031,1.13c.1,0,.189.005.26.005Q1880.742,407.067,1880.742,406.449Zm5.058.685a2.007,2.007,0,0,1-.526,1.424,1.706,1.706,0,0,1-1.3.565,1.643,1.643,0,0,1-1.236-.519,1.827,1.827,0,0,1-.5-1.318,2.009,2.009,0,0,1,.526-1.424,1.706,1.706,0,0,1,1.3-.565,1.646,1.646,0,0,1,1.236.517A1.825,1.825,0,0,1,1885.8,407.134Zm-.771.081a1.444,1.444,0,0,0-.3-.948.921.921,0,0,0-.738-.363.853.853,0,0,0-.694.366,1.464,1.464,0,0,0-.286.926,1.439,1.439,0,0,0,.3.947.921.921,0,0,0,.737.365.852.852,0,0,0,.694-.368A1.464,1.464,0,0,0,1885.028,407.215Zm2.353,1.807h-.792q.037-.867.037-1.9,0-1.021-.037-1.737h.792q-.036.7-.036,1.737Q1887.345,408.172,1887.381,409.022Zm4.054-1.947a2.064,2.064,0,0,1-.509,1.387,1.779,1.779,0,0,1-1.427.593q-.414,0-1.141-.034.036-.845.036-1.9,0-1.018-.036-1.737h.49q.12,0,.358-.008t.31-.008a1.886,1.886,0,0,1,1.464.5A1.739,1.739,0,0,1,1891.435,407.075Zm-.763.12a1.349,1.349,0,0,0-.313-.9,1.188,1.188,0,0,0-.957-.368,2.922,2.922,0,0,0-.33.025q.027.56.028,1.169,0,.669.028,1.326a1.85,1.85,0,0,0,.364.036,1.057,1.057,0,0,0,.891-.374A1.441,1.441,0,0,0,1890.672,407.2Zm6.141,1.826h-.9a5.883,5.883,0,0,0-.255-1.046h-1.292a5.4,5.4,0,0,0-.263,1.046h-.841q0-.109.653-1.79a14.039,14.039,0,0,0,.653-1.851h1.058a15.388,15.388,0,0,0,.592,1.825A16.1,16.1,0,0,1,1896.813,409.022Zm-1.292-1.58a15.843,15.843,0,0,1-.479-1.561H1895q0,.109-.495,1.561Zm4.554-1.108a1.091,1.091,0,0,1-.5.987,2.21,2.21,0,0,1-1.218.319c-.088,0-.15,0-.187-.005q0,.526.031,1.387h-.786q.037-.808.037-1.9,0-1.007-.037-1.737h.487q.1,0,.4-.008c.2-.005.365-.008.509-.008a1.6,1.6,0,0,1,.9.241A.814.814,0,0,1,1900.076,406.334Zm-.721.154q0-.6-.794-.6a2.252,2.252,0,0,0-.419.042q.03.529.031,1.2c.047,0,.1.005.162.005Q1899.354,407.134,1899.354,406.488Zm4.076-.154a1.091,1.091,0,0,1-.5.987,2.208,2.208,0,0,1-1.218.319c-.088,0-.15,0-.187-.005q0,.526.031,1.387h-.786q.036-.808.037-1.9,0-1.007-.037-1.737h.487c.069,0,.2,0,.4-.008s.365-.008.509-.008a1.6,1.6,0,0,1,.9.241A.813.813,0,0,1,1903.43,406.334Zm-.721.154q0-.6-.794-.6a2.253,2.253,0,0,0-.419.042q.031.529.031,1.2c.047,0,.1.005.162.005Q1902.708,407.134,1902.709,406.488Zm6.206.646a2.007,2.007,0,0,1-.526,1.424,1.706,1.706,0,0,1-1.3.565,1.643,1.643,0,0,1-1.236-.519,1.827,1.827,0,0,1-.5-1.318,2.009,2.009,0,0,1,.526-1.424,1.706,1.706,0,0,1,1.3-.565,1.646,1.646,0,0,1,1.237.517A1.827,1.827,0,0,1,1908.915,407.134Zm-.772.081a1.444,1.444,0,0,0-.3-.948.921.921,0,0,0-.738-.363.852.852,0,0,0-.694.366,1.462,1.462,0,0,0-.285.926,1.439,1.439,0,0,0,.3.947.92.92,0,0,0,.737.365.852.852,0,0,0,.694-.368A1.463,1.463,0,0,0,1908.143,407.215Zm4.563,1.807h-.691a6.824,6.824,0,0,0-.769-1.211,6.665,6.665,0,0,1-.917-1.58h-.045a9.846,9.846,0,0,1,.07,1.108q0,.691.039,1.684h-.688q.042-.867.042-1.9,0-1.021-.042-1.737h.831a5.267,5.267,0,0,0,.691,1.183,6.953,6.953,0,0,1,.844,1.491h.042a10.574,10.574,0,0,1-.067-1.119q0-.758-.039-1.555h.7q-.04.694-.039,1.737T1912.706,409.022Z" transform="translate(-1823.543 -395.707)" fill="#f9f9fa"/>
  </g>
</svg>
