<svg id="c" xmlns="http://www.w3.org/2000/svg" width="186.808" height="222.347" viewBox="0 0 186.808 222.347">
  <path id="Path_5091" data-name="Path 5091" d="M186.8,65.638a20.562,20.562,0,0,0-2.283-9.878,18.366,18.366,0,0,0-6.759-6.973q-37.3-22.779-74.624-45.527c-6.7-4.1-13.2-3.948-19.854.208C73.38,9.651,23.82,39.72,9.052,48.779,2.97,52.508.011,58.214.01,65.631Q0,111.441,0,157.251a20.663,20.663,0,0,0,2.184,9.689,18.322,18.322,0,0,0,6.86,7.163c14.769,9.059,64.335,39.126,74.231,45.31,6.656,4.159,13.154,4.308,19.859.208q37.293-22.8,74.63-45.527a18.329,18.329,0,0,0,6.86-7.161,20.691,20.691,0,0,0,2.183-9.689s0-61.064-.01-91.6" transform="translate(0 -0.268)" fill="#5c8dbc"/>
  <path id="Path_5092" data-name="Path 5092" d="M94.055,143.509,2.988,218.793a23.139,23.139,0,0,0,6.827,9.665c14.7,12.223,64.026,52.791,73.875,61.134,6.624,5.611,13.091,5.812,19.764.281q37.114-30.768,74.272-61.428a23.145,23.145,0,0,0,6.827-9.663l-90.5-75.273" transform="translate(-0.366 -71.566)" fill="#1a4674"/>
  <path id="Path_5093" data-name="Path 5093" d="M91.1,165.809c6.392,13.283,18.409,22.241,32.194,22.241,13.87,0,25.955-9.073,32.315-22.5l-31.972-22.044L91.1,165.809" transform="translate(-29.905 -39.385)" fill="#1a4674"/>
  <path id="Path_5094" data-name="Path 5094" d="M239.959,78.387a8.855,8.855,0,0,0-2.741-6.428L128.182,108l109.167,36.3A8.834,8.834,0,0,0,239.97,138s0-39.736-.011-59.61" transform="translate(-53.162 2.915)" fill="#1b598e"/>
  <path id="Path_5095" data-name="Path 5095" d="M240.807,149.524h-8.531V159.68h-8.532V149.524h-8.53V139.372h8.53V129.218h8.532v10.154h8.531v10.152m-31.128,0h-8.53V159.68h-8.531V149.524h-8.531V139.372h8.531V129.218h8.531v10.154h8.53v10.152" transform="translate(-60.013 -33.344)" fill="#fff"/>
  <path id="Path_5096" data-name="Path 5096" d="M149.705,120.995c-6.36,7.544-18.445,12.643-32.315,12.643-13.785,0-25.8-5.035-32.194-12.5a18.835,18.835,0,0,1-4.891-12.306c0-13.7,16.6-24.8,37.085-24.8,13.7,0,25.65,4.972,32.074,12.36L181.878,83.9c-12.884-14.876-36.937-24.884-64.488-24.884-41.132,0-74.474,22.3-74.474,49.813,0,9.025,3.59,17.489,9.864,24.79,12.851,14.954,36.973,25.024,64.611,25.024,27.688,0,51.848-10.11,64.681-25.109l-32.366-12.543" transform="translate(-21.831 2.34)" fill="#fff"/>
</svg>
