<svg id="css-5" xmlns="http://www.w3.org/2000/svg" width="36.447" height="51.445" viewBox="0 0 36.447 51.445">
  <path id="Path_5110" data-name="Path 5110" d="M398.1,1.9h-3.023l3.145,3.414V6.942h-6.478V5.04h3.145l-3.145-3.414V0H398.1Zm-7.643,0h-3.027l3.149,3.414V6.942h-6.481V5.04h3.145l-3.145-3.414V0h6.359Zm-7.569.078h-3.262v2.98h3.262V6.944H377.3V0h5.583Z" transform="translate(-369.535)" fill="#131313"/>
  <path id="Path_5111" data-name="Path 5111" d="M3.317,528.6,0,491.4H36.447l-3.322,37.2L18.2,532.732Z" transform="translate(0 -481.287)" fill="#1572b6"/>
  <path id="Path_5112" data-name="Path 5112" d="M885.5,674.329l12.06-3.344L900.4,639.2H885.5Z" transform="translate(-867.277 -626.045)" fill="#33a9dc"/>
  <path id="Path_5113" data-name="Path 5113" d="M885.5,854.732h6.038l.416-4.672H885.5V845.5h11.442l-.109,1.225L895.711,859.3H885.5Z" transform="translate(-867.277 -828.1)" fill="#fff"/>
  <path id="Path_5114" data-name="Path 5114" d="M410.6,1631.412h-.021l-5.081-1.373-.325-3.639H400.6l.64,7.164,9.347,2.6h.027v-4.754Z" transform="translate(-392.356 -1592.929)" fill="#ebebeb"/>
  <path id="Path_5115" data-name="Path 5115" d="M891.739,1506.2l-.549,6.106-5.089,1.373v4.754l9.353-2.593.068-.772.794-8.87h-4.577Z" transform="translate(-867.865 -1475.203)" fill="#fff"/>
  <path id="Path_5116" data-name="Path 5116" d="M342.33,845.5v4.563H331.312l-.095-1.025-.208-2.313L330.9,845.5Zm-.016,9.232v4.562H337.29l-.088-1.025-.208-2.313-.109-1.224h5.427Z" transform="translate(-324.09 -828.1)" fill="#ebebeb"/>
</svg>
