<svg id="dart" xmlns="http://www.w3.org/2000/svg" width="120.144" height="120.944" viewBox="0 0 120.144 120.944">
  <path id="Path_5135" data-name="Path 5135" d="M61.8,60.967,53.988,53.15l.033,56.5.094,2.641a18.635,18.635,0,0,0,.654,4.1l61.939,21.841,15.483-6.86.006-.019L61.8,60.967" transform="translate(-28.882 -28.04)" fill="#00d2b8"/>
  <path id="Path_5136" data-name="Path 5136" d="M55.625,186.929l0,0a.577.577,0,0,1-.017-.08A.214.214,0,0,0,55.625,186.929Zm77.422,14.981-15.483,6.86L55.629,186.932c1.183,4.539,3.8,9.642,6.621,12.432l20.213,20.1,44.943.059,5.647-17.63-.006.019Z" transform="translate(-29.739 -98.576)" fill="#55ddca"/>
  <path id="Path_5137" data-name="Path 5137" d="M1.88,89.512c-2,2.136-1.007,6.543,2.215,9.79l13.9,14.014,8.74,3.077a18.635,18.635,0,0,1-.654-4.1l-.094-2.641-.033-56.5L1.88,89.512Z" transform="translate(-0.847 -28.04)" fill="#0081c6"/>
  <path id="Path_5138" data-name="Path 5138" d="M117.216,53.863a19.348,19.348,0,0,0-4.11-.641l-2.791-.1-56.326.008L132.2,131.342h.007l6.869-15.5L117.216,53.863" transform="translate(-28.882 -28.028)" fill="#0079b3"/>
  <path id="Path_5139" data-name="Path 5139" d="M187.67,54.654c.03.007.054.015.074.018l0,0a.374.374,0,0,0-.071-.015Zm12.5,6.651c-2.838-2.862-7.874-5.463-12.421-6.633L209.6,116.65l-6.869,15.5h-.007l16.787-5.361.036-46.023L200.165,61.305Z" transform="translate(-99.407 -28.834)" fill="#00a4e4"/>
  <path id="Path_5140" data-name="Path 5140" d="M114.153,17.149,100.144,3.242C96.9.033,92.495-.966,90.364,1.029L53.988,25.107l56.326-.008,2.791.1a19.347,19.347,0,0,1,4.11.641l-3.062-8.687Z" transform="translate(-28.882 -0.001)" fill="#00d2b8"/>
</svg>
