<svg xmlns="http://www.w3.org/2000/svg" xmlns:xlink="http://www.w3.org/1999/xlink" width="60" height="60" viewBox="0 0 60 60">
  <defs>
    <filter id="Path_67" x="0" y="0" width="60" height="60" filterUnits="userSpaceOnUse">
      <feOffset dy="3" input="SourceAlpha"/>
      <feGaussianBlur stdDeviation="3" result="blur"/>
      <feFlood flood-color="#00646b" flood-opacity="0.49"/>
      <feComposite operator="in" in2="blur"/>
      <feComposite in="SourceGraphic"/>
    </filter>
  </defs>
  <g id="arrow-up-r" transform="translate(51 48) rotate(180)">
    <path id="Path_66" data-name="Path 66" d="M22.3,17.607l2.9-2.822L16.5,6.317,7.783,14.785l2.9,2.822,3.755-3.649V29h4.107V13.958Z" transform="translate(4.099 3)" fill="#0ef"/>
    <g transform="matrix(-1, 0, 0, -1, 51, 48)" filter="url(#Path_67)">
      <path id="Path_67-2" data-name="Path 67" d="M1,35.364A7.636,7.636,0,0,0,8.636,43H35.364A7.636,7.636,0,0,0,43,35.364V8.636A7.636,7.636,0,0,0,35.364,1H8.636A7.636,7.636,0,0,0,1,8.636Zm7.636,3.818H35.364a3.818,3.818,0,0,0,3.818-3.818V8.636a3.818,3.818,0,0,0-3.818-3.818H8.636A3.818,3.818,0,0,0,4.818,8.636V35.364A3.818,3.818,0,0,0,8.636,39.182Z" transform="translate(52 49) rotate(180)" fill="#0ef" fill-rule="evenodd"/>
    </g>
  </g>
</svg>
