<svg xmlns="http://www.w3.org/2000/svg" xmlns:xlink="http://www.w3.org/1999/xlink" width="89.468" height="93.324" viewBox="0 0 89.468 93.324">
  <defs>
    <clipPath id="clip-path">
      <rect id="Rectangle_16" data-name="Rectangle 16" width="89.468" height="93.324" rx="14" transform="translate(0 0)" fill="#fff"/>
    </clipPath>
    <clipPath id="clip-path-2">
      <path id="Path_5065" data-name="Path 5065" d="M30.34,77a7.78,7.78,0,0,0,3.292,5.078H48.026c1.751-1.191,3.537-3.432,3.537-7.635V63.589a4.315,4.315,0,0,1,2.7-3.572S55.7,59,54.155,58.441c0,0-6.829-.56-6.829,5.043V71.75s.28,3.047-1.331,4.308V65.831s.105-3.257,1.786-4.483c0,0,1.121-2-1.331-1.471,0,0-4.693.665-4.9,6.164l-.105,10.507H40.321l-.105-10.507a6.1,6.1,0,0,0-4.9-6.164c-2.452-.56-1.331,1.471-1.331,1.471,1.681,1.226,1.786,4.483,1.786,4.483V76.162c-1.611-1.156-1.331-4.413-1.331-4.413V63.484c0-5.6-6.829-5.043-6.829-5.043-1.576.56-.105,1.576-.105,1.576a4.438,4.438,0,0,1,2.7,3.572v7.6L30.34,77Z" transform="translate(-26.879 -58.426)"/>
    </clipPath>
  </defs>
  <g id="Mask_Group_19" data-name="Mask Group 19" transform="translate(0 0)" clip-path="url(#clip-path)">
    <g id="github-octocat" transform="translate(0.078 1.307)">
      <path id="Path_5063" data-name="Path 5063" d="M67.76,62.02c0,4.868-11.277,8.791-25.181,8.791S17.4,66.853,17.4,62.02c0-4.868,11.277-8.791,25.181-8.791S67.76,57.151,67.76,62.02Zm0,0" transform="translate(2.6 7.944)" fill="#9edcf2"/>
      <g id="Group_4063" data-name="Group 4063" transform="translate(30.896 67.146)" clip-path="url(#clip-path-2)">
        <path id="Path_5064" data-name="Path 5064" d="M67.76,62.02c0,4.868-11.277,8.791-25.181,8.791S17.4,66.853,17.4,62.02c0-4.868,11.277-8.791,25.181-8.791S67.76,57.151,67.76,62.02Zm0,0" transform="translate(-28.296 -59.202)" fill="#7dbce7"/>
      </g>
      <path id="Path_5066" data-name="Path 5066" d="M14.387,38.36l-.735,2.522a.905.905,0,0,0,.665,1.086.822.822,0,0,0,.77-1.121l-.7-2.487Zm0,0" transform="translate(2.038 5.722)" fill="#9edcf2"/>
      <path id="Path_5067" data-name="Path 5067" d="M89.587,33.48l.07-.315a84.923,84.923,0,0,0-19.542-1.3,36.061,36.061,0,0,0,.981-9.316,16.478,16.478,0,0,0-4.9-12.013,15.764,15.764,0,0,0-.7-10.4S62.06-.947,54.25,4.271a39.273,39.273,0,0,0-9.561-1.156A41.135,41.135,0,0,0,34.112,4.481C26.057-1.017,22.519.1,22.519.1a15.184,15.184,0,0,0-.455,11.137,16.1,16.1,0,0,0-4.378,11.277A27.239,27.239,0,0,0,19.052,31.8,84.311,84.311,0,0,0,0,33.13l.07.315a84.417,84.417,0,0,1,19.087-1.3c.21.56.455,1.121.7,1.646A85.429,85.429,0,0,0,.14,36.632l.105.315a86.6,86.6,0,0,1,19.823-2.8c2.732,5.043,8.055,8.335,17.581,9.351a7.78,7.78,0,0,0-3.292,5.078c-1.856.876-7.67,3.047-11.172-2.977,0,0-1.961-3.572-5.709-3.852,0,0-3.642-.07-.245,2.276,0,0,2.417,1.156,4.1,5.463,0,0,2.206,7.355,12.748,4.973v7.53a4.315,4.315,0,0,1-2.7,3.572s-1.471,1.016.105,1.576c0,0,6.829.56,6.829-5.043V53.828s-.28-3.292,1.331-4.413V63s-.105,3.257-1.786,4.483c0,0-1.121,2,1.331,1.471,0,0,4.693-.665,4.9-6.164L44.2,49.03h1.121l.105,13.764a6.1,6.1,0,0,0,4.9,6.164c2.452.56,1.331-1.471,1.331-1.471C49.977,66.261,49.872,63,49.872,63V49.52c1.611,1.261,1.331,4.308,1.331,4.308v8.265c0,5.6,6.829,5.043,6.829,5.043,1.576-.56.105-1.576.105-1.576a4.438,4.438,0,0,1-2.7-3.572V51.131c0-4.238-1.786-6.479-3.537-7.635,10.156-1.016,15.025-4.273,17.266-9.386a84.75,84.75,0,0,1,20.1,2.837l.105-.315A87.561,87.561,0,0,0,69.309,33.8c.21-.525.385-1.051.56-1.611a88.193,88.193,0,0,1,19.718,1.3Zm0,0" transform="translate(0 -0.01)" fill="#010101"/>
      <path id="Path_5068" data-name="Path 5068" d="M57.957,19.667A9.531,9.531,0,0,1,61.424,26.6c0,12.048-8.966,12.363-20.033,12.363S21.359,37.284,21.359,26.6a9.359,9.359,0,0,1,3.432-6.9c3.607-3.292,9.7-1.541,16.6-1.541s12.958-1.786,16.566,1.506Zm0,0" transform="translate(3.192 2.631)" fill="#f5ccb3"/>
      <path id="Path_5069" data-name="Path 5069" d="M34.081,26.769c0,3.327-1.856,5.989-4.168,5.989s-4.168-2.7-4.168-5.989c0-3.327,1.856-5.989,4.168-5.989C32.225,20.745,34.081,23.441,34.081,26.769Zm0,0" transform="translate(3.848 3.094)" fill="#fff"/>
      <path id="Path_5070" data-name="Path 5070" d="M32.559,26.57c0,2.206-1.261,3.993-2.767,3.993-1.541,0-2.767-1.786-2.767-3.993s1.261-3.993,2.767-3.993S32.559,24.363,32.559,26.57Zm0,0" transform="translate(4.039 3.363)" fill="#af5c51"/>
      <path id="Path_5071" data-name="Path 5071" d="M53.551,26.769c0,3.327-1.856,5.989-4.168,5.989s-4.168-2.7-4.168-5.989c0-3.327,1.856-5.989,4.168-5.989C51.66,20.745,53.551,23.441,53.551,26.769Zm0,0" transform="translate(6.758 3.094)" fill="#fff"/>
      <path id="Path_5072" data-name="Path 5072" d="M53.454,26.57c0,2.206-1.261,3.993-2.767,3.993-1.541,0-2.767-1.786-2.767-3.993s1.261-3.993,2.767-3.993C52.228,22.577,53.454,24.363,53.454,26.57Zm0,0M40.215,31.823a1.051,1.051,0,1,1-2.1,0,1.032,1.032,0,0,1,1.051-1.051A1.054,1.054,0,0,1,40.215,31.823Zm0,0M36.748,34.45a.332.332,0,0,1,.63-.21A1.884,1.884,0,0,0,39.165,35.5a1.932,1.932,0,0,0,1.786-1.261.332.332,0,0,1,.63.21,2.559,2.559,0,0,1-4.833,0Zm0,0" transform="translate(5.489 3.363)" fill="#af5c51"/>
      <path id="Path_5073" data-name="Path 5073" d="M16.8,37.114c0,.28-.315.49-.735.49-.385,0-.735-.21-.735-.49s.315-.49.735-.49S16.8,36.834,16.8,37.114Zm0,0,2.031,1.121c0,.28-.315.49-.735.49-.385,0-.735-.21-.735-.49s.315-.49.735-.49S18.828,37.954,18.828,38.234Zm0,0,1.226,1.471c0,.28-.315.49-.735.49-.385,0-.735-.21-.735-.49s.315-.49.735-.49C19.739,39.18,20.054,39.425,20.054,39.705Zm0,0,1.121,1.681c0,.28-.315.49-.735.49-.385,0-.735-.21-.735-.49s.315-.49.735-.49C20.859,40.861,21.175,41.106,21.175,41.386Zm0,0M22.4,42.927c0,.28-.315.49-.735.49-.385,0-.735-.21-.735-.49s.315-.49.735-.49S22.4,42.647,22.4,42.927Zm0,0,1.681,1.366c0,.28-.315.49-.735.49-.385,0-.735-.21-.735-.49s.315-.49.735-.49C23.766,43.768,24.081,44.013,24.081,44.293Zm0,0,2.346.876c0,.28-.315.49-.735.49-.385,0-.735-.21-.735-.49s.315-.49.735-.49S26.428,44.889,26.428,45.169Zm0,0,2.347,0c0,.28-.315.49-.735.49-.385,0-.735-.21-.735-.49s.315-.49.735-.49S28.774,44.889,28.774,45.169Zm0,0,2.382-.385c0,.28-.315.49-.735.49-.385,0-.735-.21-.735-.49s.315-.49.735-.49C30.806,44.293,31.156,44.5,31.156,44.784Zm0,0" transform="translate(2.29 5.462)" fill="#c4e5d9"/>
    </g>
  </g>
</svg>
