<svg xmlns="http://www.w3.org/2000/svg" xmlns:xlink="http://www.w3.org/1999/xlink" width="48.001" height="36.001" viewBox="0 0 48.001 36.001">
  <defs>
    <linearGradient id="linear-gradient" y1="0.5" x2="1" y2="0.5" gradientUnits="objectBoundingBox">
      <stop offset="0" stop-color="#c8c8c8"/>
      <stop offset="1" stop-color="#cdcdcd"/>
    </linearGradient>
    <linearGradient id="linear-gradient-2" y1="0.5" x2="1" y2="0.5" gradientUnits="objectBoundingBox">
      <stop offset="0" stop-color="#d9d9d9"/>
      <stop offset="1" stop-color="#e2e2e2"/>
    </linearGradient>
  </defs>
  <g id="gmail-icon-2" transform="translate(-7.999 -13.999)">
    <path id="Path_5151" data-name="Path 5151" d="M53,50H11a3,3,0,0,1-3-3V17a3,3,0,0,1,3-3H53a3,3,0,0,1,3,3V47a3,3,0,0,1-3,3Z" fill="#eaeaea"/>
    <path id="Path_5152" data-name="Path 5152" d="M14,50H11a3,3,0,0,1-3-3V17a3,3,0,0,1,6,0Z" fill="#d54c3f"/>
    <path id="Path_5153" data-name="Path 5153" d="M50,50h3a3,3,0,0,0,3-3V17a3,3,0,1,0-6,0Z" fill="#b63524"/>
    <path id="Path_5154" data-name="Path 5154" d="M54.718,19.46a3,3,0,0,0-3.436-4.92L32,28.577h0L12.718,14.54a3,3,0,1,0-3.436,4.92L9.2,19.4,32,36M54.8,19.4,32,36" fill="#de5145"/>
    <path id="Path_5155" data-name="Path 5155" d="M53,14a2.988,2.988,0,0,0-1.718.54L32,28.577h0L12.718,14.54A2.988,2.988,0,0,0,11,14Z" fill="#efefef"/>
    <path id="Path_5156" data-name="Path 5156" d="M14,24.188,8.945,19.18l0,0a3,3,0,0,0,.339.276L9.2,19.4,14,22.9v1.328" fill="#c64132"/>
    <path id="Path_5157" data-name="Path 5157" d="M28.668,38.591,14,50V24.063L28.665,38.587" fill="#e3e3e3"/>
    <path id="Path_5158" data-name="Path 5158" d="M28.668,38.591,32,36,14,22.9v1.167L28.665,38.587Z" fill="url(#linear-gradient)"/>
    <path id="Path_5159" data-name="Path 5159" d="M40.061,50H50V22.9L32,36l-3.335,2.587Z" fill="url(#linear-gradient-2)"/>
  </g>
</svg>
