<svg id="html-5" xmlns="http://www.w3.org/2000/svg" width="86.561" height="122.18" viewBox="0 0 86.561 122.18">
  <path id="Path_5105" data-name="Path 5105" d="M87.006,70.766,79.12,159.108l-35.447,9.827-35.35-9.813L.445,70.766H87.006Z" transform="translate(-0.445 -46.755)" fill="#e44d26"/>
  <path id="Path_5106" data-name="Path 5106" d="M128,175.49l28.643-7.941,6.739-75.492H128Z" transform="translate(-84.72 -60.821)" fill="#f16529"/>
  <path id="Path_5107" data-name="Path 5107" d="M59.76,134.831H75.09V124H47.917l.259,2.907,2.664,29.862H75.09V145.928H60.75ZM62.2,162.183H51.324L52.842,179.2l22.2,6.162.05-.014V174.072l-.048.013-12.068-3.259-.772-8.643Z" transform="translate(-31.809 -81.923)" fill="#ebebeb"/>
  <path id="Path_5108" data-name="Path 5108" d="M24.18,0h5.507V5.441h5.038V0h5.507V16.476H34.725V10.959H29.687v5.517H24.18V0ZM47.473,5.464H42.626V0H57.832V5.464h-4.85V16.476H47.474V5.464h0ZM60.245,0h5.742l3.532,5.789L73.048,0h5.744V16.476H73.308V8.31l-3.789,5.858h-.1L65.633,8.31v8.166H60.245ZM81.533,0h5.509V11.03h7.744v5.446H81.533V0Z" transform="translate(-16.127)"/>
  <path id="Path_5109" data-name="Path 5109" d="M127.889,156.765h13.344l-1.258,14.054-12.086,3.262v11.274L150.1,179.2l.163-1.831,2.547-28.529.264-2.91H127.889v10.836Zm0-21.96v.026h26.175l.217-2.436.494-5.494.259-2.907H127.889v10.81Z" transform="translate(-84.646 -81.923)" fill="#fff"/>
</svg>
