<svg id="javascript" xmlns="http://www.w3.org/2000/svg" width="104.362" height="104.362" viewBox="0 0 104.362 104.362">
  <path id="Path_5089" data-name="Path 5089" d="M0,0H104.362V104.362H0Z" fill="#f7df1e"/>
  <path id="Path_5090" data-name="Path 5090" d="M67.311,161.164l9.018-5.458c1.74,3.085,3.323,5.695,7.119,5.695,3.639,0,5.934-1.423,5.934-6.96V116.786h11.074V154.6c0,11.47-6.724,16.691-16.533,16.691-8.859,0-14-4.588-16.612-10.126m39.161-1.186,9.017-5.221c2.374,3.877,5.459,6.724,10.917,6.724,4.589,0,7.515-2.294,7.515-5.459,0-3.8-3.006-5.142-8.069-7.356l-2.768-1.188c-7.99-3.4-13.29-7.672-13.29-16.69,0-8.306,6.328-14.635,16.217-14.635,7.04,0,12.1,2.453,15.742,8.86l-8.623,5.538c-1.9-3.4-3.955-4.746-7.119-4.746-3.244,0-5.3,2.057-5.3,4.746,0,3.322,2.057,4.668,6.8,6.725l2.768,1.186C139.7,142.5,145,146.61,145,155.865c0,9.968-7.831,15.426-18.352,15.426-10.283,0-16.928-4.9-20.172-11.312" transform="translate(-49.809 -76.167)"/>
</svg>
