<svg xmlns="http://www.w3.org/2000/svg" width="20" height="14" viewBox="0 0 20 14">
  <g id="menu-left" transform="translate(0.5 0.5)">
    <path id="Path_834" data-name="Path 834" d="M2,6A1,1,0,0,1,3,5H11a1,1,0,1,1,0,1.99H3A1,1,0,0,1,2,6Z" transform="translate(-2 -5)" fill="#0ef" stroke="#0ef" stroke-width="1"/>
    <path id="Path_835" data-name="Path 835" d="M2,12a.971.971,0,0,1,.945-1H20.055a1,1,0,0,1,0,1.99H2.945A.971.971,0,0,1,2,12Z" transform="translate(-2 -5.5)" fill="#0ef" stroke="#0ef" stroke-width="1"/>
    <path id="Path_836" data-name="Path 836" d="M3,17.01A1,1,0,0,0,3,19H15a1,1,0,1,0,0-1.99Z" transform="translate(-2 -6)" fill="#0ef" stroke="#0ef" stroke-width="1"/>
  </g>
</svg>
