<svg id="microsoft-sql-server" xmlns="http://www.w3.org/2000/svg" xmlns:xlink="http://www.w3.org/1999/xlink" width="104.362" height="92.653" viewBox="0 0 104.362 92.653">
  <defs>
    <linearGradient id="linear-gradient" x1="-4.183" y1="0.143" x2="-3.174" y2="0.794" gradientUnits="objectBoundingBox">
      <stop offset="0" stop-color="#909ca9"/>
      <stop offset="1" stop-color="#ededee"/>
    </linearGradient>
    <linearGradient id="linear-gradient-2" x1="-8.133" y1="37.388" x2="-6.64" y2="37.388" gradientUnits="objectBoundingBox">
      <stop offset="0" stop-color="#939fab"/>
      <stop offset="1" stop-color="#dcdee1"/>
    </linearGradient>
    <radialGradient id="radial-gradient" cx="0.443" cy="0.439" r="0.128" gradientTransform="matrix(-0.691, -0.149, -0.208, 1.978, -19.227, -9.973)" gradientUnits="objectBoundingBox">
      <stop offset="0" stop-color="#ee352c"/>
      <stop offset="1" stop-color="#a91d22"/>
    </radialGradient>
  </defs>
  <g id="Group_4064" data-name="Group 4064" transform="translate(31.003 0)">
    <path id="Path_5101" data-name="Path 5101" d="M368.967,463.277l-12.656,4.133L345.3,472.269l-3.08.813c-.784.746-1.607,1.5-2.5,2.267-.976.842-1.884,1.607-2.583,2.162A19.266,19.266,0,0,0,334.634,480a11.276,11.276,0,0,0-1.856,3.138,5.268,5.268,0,0,0,.746,4.735,16.774,16.774,0,0,0,6.916,5.194,43.948,43.948,0,0,0,6.084,2.038A80.549,80.549,0,0,0,359.5,496.95a14.869,14.869,0,0,0,1.674,0,22.782,22.782,0,0,0,1.234-2.344,59.248,59.248,0,0,0,4.486-11.872,56.257,56.257,0,0,0,1.148-8.227c.067-.928.1-4.037.038-5.089a35.747,35.747,0,0,0-.478-4.486,1.036,1.036,0,0,1-.029-.392,16.532,16.532,0,0,1,1.712-.517l-.316-.746h0Zm-2.889,1.693a30.981,30.981,0,0,1,.5,4.793,2.563,2.563,0,0,1-.01.65c-.076,0-1.617-.909-2.717-1.6-.957-.6-2.774-1.808-3.061-2.038-.1-.067-.086-.076.7-.344C362.816,465.984,365.973,464.97,366.078,464.97Zm-6.448,2.124a3.176,3.176,0,0,1,.832.45,59.311,59.311,0,0,0,5.8,3.224c.354.153.392.1-.421.651a41.7,41.7,0,0,1-6.572,3.53c-.469.21-.861.373-.87.373a2.48,2.48,0,0,1,.115-.526,28.2,28.2,0,0,0,1.024-6.725c.01-.957.01-.957.1-.985C359.611,467.094,359.621,467.094,359.63,467.094Zm-1.33.507a20.62,20.62,0,0,1-.058,2.784,24.343,24.343,0,0,1-.88,4.161,6.374,6.374,0,0,1-.22.669,16.831,16.831,0,0,1-1.779-1.731,12.946,12.946,0,0,1-1.76-2.564,8.057,8.057,0,0,1-.536-1.3C353.221,469.514,358.262,467.563,358.3,467.6Zm-6.256,2.458a.035.035,0,0,1,.029.01,1.786,1.786,0,0,1,.144.344,12.929,12.929,0,0,0,1.588,2.841,16.187,16.187,0,0,0,2.21,2.382c.23.191.44.373.469.4.057.057.077.048-1.483.641-1.808.689-3.779,1.378-6.036,2.1q-.809.261-1.616.526c-.086.029-.058-.019.191-.411a53.788,53.788,0,0,0,3.779-7.615c.163-.421.325-.842.354-.937a.345.345,0,0,1,.21-.249A.929.929,0,0,1,352.044,470.059Zm-1.913.794a21.4,21.4,0,0,1-.938,1.98c-.928,1.808-1.942,3.587-3.3,5.749-.23.373-.45.717-.478.756-.048.067-.067.048-.22-.249a8.771,8.771,0,0,1-.737-2.219,8.932,8.932,0,0,1,.048-2.851c.124-.593.115-.583.4-.727C346.133,472.671,350.093,470.815,350.131,470.853Zm16.5.67v.4a52.04,52.04,0,0,1-.565,7.194c-.057.373-.105.679-.115.689s-.277-.076-.6-.172a24.689,24.689,0,0,1-4.4-1.884,19.482,19.482,0,0,1-2.238-1.378c.009-.009.411-.22.88-.469a56.355,56.355,0,0,0,5.233-3.071c.584-.392,1.464-1.023,1.655-1.2l.153-.115Zm-23.724,2.831c.038,0,.029.077-.029.421-.038.249-.086.708-.105,1.023a7.077,7.077,0,0,0,.842,3.846,7.96,7.96,0,0,1,.335.727c-.067.057-6.4,1.913-8.39,2.459-.593.163-1.11.306-1.148.316-.067.019-.076.01-.048-.153a10.052,10.052,0,0,1,2.784-4.793,12.373,12.373,0,0,1,3.147-2.411c.976-.555,2.478-1.387,2.592-1.425C342.89,474.355,342.9,474.355,342.909,474.355Zm14.923,2.669a3.855,3.855,0,0,1,.516.277,28.82,28.82,0,0,0,7.327,2.851l.22.048-.306.172c-1.272.708-5.453,2.449-9.729,4.047-.622.229-1.234.459-1.349.507a.689.689,0,0,1-.22.067c0-.01.172-.344.392-.756a47.2,47.2,0,0,0,3.013-6.859C357.775,477.2,357.822,477.033,357.832,477.023Zm-1.521.5a2.753,2.753,0,0,1-.163.44,60.583,60.583,0,0,1-3.319,6.687c-.354.631-.65,1.138-.66,1.138s-.3-.172-.641-.383a19.673,19.673,0,0,1-5-4.257l-.172-.21.87-.239a62.464,62.464,0,0,0,8.4-2.9C356,477.645,356.3,477.521,356.311,477.521Zm9.451,3.3h0c.01.22-.478,2.191-.88,3.616-.335,1.2-.622,2.133-1.148,3.788-.23.727-.43,1.33-.44,1.33a.634.634,0,0,1-.124-.029,39.984,39.984,0,0,1-7.777-2.191c-.67-.268-1.626-.7-1.684-.746a11.151,11.151,0,0,1,1.282-.6c4.353-1.9,8.868-4.066,10.417-4.993A1.247,1.247,0,0,1,365.762,480.821Zm-21.82.746c.019.019-1.2,1.77-2.9,4.152-.593.832-1.282,1.808-1.54,2.171s-.65.938-.871,1.282l-.4.622-.43-.364a15.932,15.932,0,0,1-1.779-1.818,7.851,7.851,0,0,1-1.6-3.09c-.105-.459-.105-.689-.01-.717.143-.038,2.7-.641,5.089-1.2,1.33-.306,2.87-.67,3.425-.8S343.932,481.568,343.942,481.568Zm1.224.469.306.344a17.961,17.961,0,0,0,4.487,3.673,2.517,2.517,0,0,1,.516.335c-.067.048-5.912,2.123-8.619,3.061-1.521.536-2.774.966-2.784.966a1.645,1.645,0,0,1-.191-.124l-.172-.124.277-.4c.9-1.3,2.028-2.726,4.487-5.692l1.693-2.038ZM352.8,487.5c.009-.009.43.143.947.335a30.617,30.617,0,0,0,3.549,1.1,39.282,39.282,0,0,0,5.367.928c.21.019.325.038.287.067-.067.038-1.473.507-2.506.832-1.646.516-6.668,2-10.762,3.176-.756.22-1.406.4-1.445.411a.758.758,0,0,1-.411-.105,6.929,6.929,0,0,1,.507-.641,56.781,56.781,0,0,0,3.884-5.223C352.532,487.9,352.8,487.508,352.8,487.5Zm-1.684.048c.009.01-.67,1.1-1.856,2.975-.507.794-1.072,1.693-1.272,2.009s-.478.784-.641,1.052l-.277.488-.143-.038c-.344-.1-2.765-.947-3.406-1.205a23.682,23.682,0,0,1-2.229-1.024,9.315,9.315,0,0,1-1.645-1.043c.019-.01,1.33-.364,2.908-.794,4.19-1.138,6.514-1.8,8.036-2.277A3.828,3.828,0,0,1,351.116,487.546Zm11.91,2.793h.01c.038.1-1.511,4.4-2.076,5.759-.124.306-.172.383-.239.373-.163-.009-2.411-.325-3.779-.526-2.382-.364-6.381-1.062-7.385-1.291l-.23-.048,1.425-.326c3.061-.689,4.534-1.062,6.027-1.521a42.6,42.6,0,0,0,5.634-2.171,4.616,4.616,0,0,1,.612-.249Z" transform="translate(-332.512 -433.775)" fill="url(#linear-gradient)"/>
    <path id="Path_5102" data-name="Path 5102" d="M470.061,82.735a60.812,60.812,0,0,0-5.8,2.085,36.2,36.2,0,0,0-6.668,3.348,5.056,5.056,0,0,0-1.291,1.291.894.894,0,0,0-.057.325L457.529,91l3.052.976,7.261,1.3,8.3,1.425.086-.717c-.029,0-.048-.01-.076-.01l-1.091-.172-.22-.392c-1.129-1.99-2.372-4.458-3.1-6.122a31.651,31.651,0,0,1-1.4-3.855c-.163-.65-.182-.689-.287-.7h0Zm-.153.488h.01c.009.009.048.277.086.593a19.985,19.985,0,0,0,.928,4.027c.354,1.052.354.995-.057.871-.976-.268-5.347-1.024-8.514-1.464-.507-.067-.937-.134-.937-.143-.038-.038,2.286-1.253,3.31-1.731C466.043,84.772,469.64,83.271,469.908,83.223Zm-9.222,4.286.373.124A57.021,57.021,0,0,0,471,89.527c.316.029.584.057.593.057a4.418,4.418,0,0,1-.6.316c-1.358.679-2.851,1.511-3.884,2.152a3.965,3.965,0,0,1-.622.344c-.038,0-.239-.038-.45-.067l-.383-.057-.956-.938c-1.684-1.636-3-2.9-3.511-3.377Zm-.383.3,1.349,1.684c.737.928,1.483,1.837,1.645,2.037a3.134,3.134,0,0,1,.287.373c-.038.029-1.951-.344-2.966-.574-1.043-.239-1.473-.354-2.114-.555l-.526-.172v-.134c.01-.641.823-1.6,2.2-2.573Zm11.46,2.3c.038,0,.086.086.2.344.325.717,1.339,2.65,1.588,3.023.077.124.21.134-1.138-.086-3.243-.526-4.286-.7-4.286-.717a.993.993,0,0,1,.22-.144,18.676,18.676,0,0,0,2.918-2.018c.22-.182.421-.354.459-.383C471.735,90.1,471.754,90.091,471.764,90.1Z" transform="translate(-446.655 -82.734)" fill="url(#linear-gradient-2)"/>
    <path id="Path_5103" data-name="Path 5103" d="M397.866,167.757a.953.953,0,0,0-.009.832,3.78,3.78,0,0,0,.9,1.062s4.257,4.152,4.773,4.745A13.3,13.3,0,0,1,407,183.484a14.714,14.714,0,0,1-1.511,6.878c-1.99,4.343-6.189,9.136-12.666,14.454l.947-.316a30.406,30.406,0,0,1,3.4-2.018,121.05,121.05,0,0,1,15.794-7.069,196.971,196.971,0,0,1,32.056-8.59l.871-.134-.134-.21a29.487,29.487,0,0,0-1.923-2.707,22.985,22.985,0,0,0-6.792-5.654,50.37,50.37,0,0,0-14.741-4.946c-1.158-.23-3.7-.67-5.768-.985-4.381-.679-7.213-1.148-10.331-1.684-1.119-.191-2.793-.478-3.9-.717a24.784,24.784,0,0,1-2.535-.679C399.071,168.838,398.076,168.57,397.866,167.757Zm2.468,2.392a2.668,2.668,0,0,1,.363.115c.363.124.832.268,1.387.421q.63.173,1.263.335c.574.143,1.052.277,1.062.277.067.067,1.033,3.157,1.359,4.343.124.45.22.832.21.832a1.933,1.933,0,0,1-.239-.373,19.912,19.912,0,0,0-4.936-5.577,4.08,4.08,0,0,1-.469-.373Zm4.706,1.3a3.757,3.757,0,0,1,.516.086c1.626.363,4.544.918,6.409,1.234a2.343,2.343,0,0,1,.565.124.967.967,0,0,1-.258.163c-.316.163-1.588.918-2.009,1.205a18.325,18.325,0,0,0-2.707,2.162c-.277.277-.517.507-.517.507s-.057-.163-.105-.364a31,31,0,0,0-1.712-4.687,4.1,4.1,0,0,1-.191-.44C405.031,171.459,405.031,171.45,405.041,171.45Zm8.284,1.578a3.682,3.682,0,0,1,.344,1.062,15.662,15.662,0,0,1,.459,4.381,8.247,8.247,0,0,1-.058.823l-.029.1-.5-.163c-1.024-.325-2.688-.813-4.113-1.215-.813-.22-1.473-.421-1.473-.44a22.606,22.606,0,0,1,1.693-1.693A44.4,44.4,0,0,1,413.325,173.028Zm.66.1c.029-.029,3.96.65,5.749.995,1.33.258,3.262.66,3.377.708.057.019-.144.134-.785.421a41.52,41.52,0,0,0-6.266,3.406c-.488.325-.9.593-.909.593a5.219,5.219,0,0,1-.019-.612,13.36,13.36,0,0,0-1.033-5.2A1.447,1.447,0,0,1,413.985,173.124Zm10.169,2.009a7.194,7.194,0,0,1-.21,1.263,23.983,23.983,0,0,1-2.41,5.529,6.313,6.313,0,0,1-.4.65,4.08,4.08,0,0,1-.574-.306,31.147,31.147,0,0,0-3.75-1.837c-.383-.163-.717-.3-.727-.316-.067-.057,3.013-2.1,4.64-3.071C422.011,176.261,424.115,175.094,424.153,175.133Zm.727.115c.086,0,1.827.478,2.736.746a56.435,56.435,0,0,1,6.515,2.382l.7.316-.488.115a71.311,71.311,0,0,0-11.03,3.415c-.277.115-.526.21-.545.21a2.464,2.464,0,0,1,.2-.488,19.372,19.372,0,0,0,1.846-6.371C424.823,175.391,424.852,175.247,424.88,175.247Zm-17.334,3.98c.029-.029,1.358.287,2.076.488,1.091.306,3.405,1.081,3.405,1.138,0,.01-.258.23-.564.5-1.253,1.043-2.459,2.143-3.9,3.539-.431.411-.794.746-.813.746s-.029-.058-.019-.134a21.567,21.567,0,0,0-.134-5.768C407.566,179.466,407.537,179.236,407.547,179.227Zm27.943.029a18.354,18.354,0,0,1-1.014,1.578c-.574.823-1.416,1.913-3.32,4.3-1,1.263-2.133,2.688-2.506,3.166s-.7.88-.708.88a3.3,3.3,0,0,1-.268-.382,19.768,19.768,0,0,0-3.874-4.276c-.287-.239-.6-.5-.708-.574a1.066,1.066,0,0,1-.191-.163c0-.029,1.626-.727,2.86-1.224,2.162-.88,5.108-1.932,7.318-2.612C434.236,179.59,435.47,179.236,435.489,179.256Zm.737.191a2.2,2.2,0,0,1,.545.268,32.446,32.446,0,0,1,6.4,4.8c.507.5,1.76,1.8,1.741,1.808,0,0-.44.038-.957.076a94.29,94.29,0,0,0-14.139,2.353c-.335.076-.631.143-.65.143s.354-.373.823-.823a24.475,24.475,0,0,0,5.806-7.729c.22-.469.411-.87.43-.9Zm-21.3,2.181c.134.029,1.378.612,2.315,1.081.861.43,2.152,1.119,2.219,1.177.01.01-.45.249-1.014.526-1.8.9-3.339,1.751-4.946,2.726-.459.277-.842.507-.851.507-.038,0-.029-.038.23-.507a19.977,19.977,0,0,0,1.942-5.271C414.855,181.724,414.894,181.628,414.922,181.628Zm-1.244.229a18.252,18.252,0,0,1-.5,1.846,23.551,23.551,0,0,1-1.693,3.884c-.153.268-.383.66-.507.88l-.239.383-.536-.516a7.027,7.027,0,0,0-1.779-1.311,2.568,2.568,0,0,1-.459-.268c0-.077,1.636-1.559,2.889-2.631C411.756,183.35,413.65,181.829,413.679,181.858Zm7.605,3.128.469.306a36.369,36.369,0,0,1,3.3,2.439c.545.45,1.6,1.4,1.808,1.626l.115.124-.775.22c-4.381,1.215-7.768,2.3-11.719,3.75-.44.163-.813.3-.842.3-.057,0-.105.048.88-.861a42,42,0,0,0,6.428-7.385l.335-.516Zm-2,.5c.019.019-1.291,1.865-2.076,2.908-.937,1.244-2.6,3.329-3.75,4.687-.478.564-.889,1.033-.909,1.043s-.038-.134-.038-.354a8.018,8.018,0,0,0-.813-3.444c-.22-.44-.258-.545-.21-.593.182-.163,2.965-1.751,4.725-2.7C417.4,186.4,419.256,185.464,419.284,185.483Zm-12.092,2.965a4.222,4.222,0,0,1,.5.249,10.505,10.505,0,0,1,1.645,1.11,2.853,2.853,0,0,1-.555.459c-.909.65-2.286,1.693-3.09,2.334-.842.67-.871.689-.775.545a17.633,17.633,0,0,0,1.282-2.21,17.811,17.811,0,0,0,.8-2A1.622,1.622,0,0,1,407.193,188.449Zm3.224,2.525c.048-.009.105.077.363.459a6.9,6.9,0,0,1,1.072,2.784l.019.191-1.31.507c-2.344.909-4.506,1.808-5.969,2.477-.411.191-1.129.536-1.6.765s-.851.421-.851.411.3-.23.66-.5A38.573,38.573,0,0,0,410,191.443c.2-.239.383-.459.4-.469Zm-1.483.364a20.219,20.219,0,0,1-1.8,2.028,31.728,31.728,0,0,1-5.941,4.793c-.287.182-.545.344-.574.363-.067.038.019-.057,1.014-1.138.631-.679,1.11-1.253,1.655-1.961a3.233,3.233,0,0,1,.957-.909C405.653,193.5,408.9,191.3,408.934,191.338Z" transform="translate(-388.149 -161.166)" fill="url(#radial-gradient)"/>
  </g>
  <path id="Path_5104" data-name="Path 5104" d="M18.762,797.9c-.161,0-.321.017-.481.017a7.2,7.2,0,0,0-6.715,4.822,13.879,13.879,0,0,0,.012,9.179,7.327,7.327,0,0,0,6.1,4.7c.655.118,1.095.513,2.364,2.14l1.562,2.009h2.832l-1.883-2.085a21.47,21.47,0,0,1-1.883-2.226c0-.087.4-.279.88-.44a6.747,6.747,0,0,0,3.832-3.943,8.93,8.93,0,0,0,.962-4.237c.28-6.145-2.67-9.987-7.583-9.943Zm2.483,16.069a6.116,6.116,0,0,1-4.685.353,6.421,6.421,0,0,1-3.246-3.828,11.879,11.879,0,0,1,.187-7.007c1.2-2.522,2.791-3.682,5.114-3.682,3.445,0,5.4,2.317,5.66,6.671.2,3.635-.906,6.362-3.028,7.492Zm48.928-10.82a2.972,2.972,0,0,0-2.71,1.568l-.481.824V803.4H64.927v12.845h2.055v-4.106c0-3.754.043-4.193.52-5.22.658-1.409,1.791-2.111,2.886-1.775l.735.235v-2.226h-.949Zm-12.08-.118a5.417,5.417,0,0,0-1.255.162c-2.751.79-4.3,3.682-4.207,6.657,0,2.492.441,3.737,1.536,5.044,2.243,2.021,4.271,2.182,7.009,1.1.467-.219.975-.471.975-.471V813.5l-.975.555c-2.215,1.059-3.884,1.059-5.221-.188a6.058,6.058,0,0,1-1.4-3.4h8.29v-1.732c0-3.53-1.935-5.76-4.752-5.7h0Zm-3.353,5.632s.306-2.2,1.442-3.066a2.914,2.914,0,0,1,1.788-.629,2.7,2.7,0,0,1,1.736.644c1.041.879,1.216,3.035,1.216,3.035H54.741v.017ZM5.171,806.35c-2.229-1.483-3.218-2.552-3.1-3.813.346-3.489,4.272-3.006,6.446-1.686l.015-2.347a7.75,7.75,0,0,0-2.924-.6c-2.643-.044-4.351.908-5.152,2.844-1.176,2.858-.135,5.013,3.629,7.418,2.113,1.35,3.047,2.522,3.047,3.8,0,2.64-2.9,3.561-5.888,1.9-.615-.336-1.136-.617-1.164-.617A22.254,22.254,0,0,0,.03,815.79a11.935,11.935,0,0,0,2.3.716c3.417.748,6.527-1.012,6.821-3.87.256-2.683-.628-4.09-3.976-6.288v0ZM88.371,803a5.7,5.7,0,0,0-1.271.163c-2.748.79-4.3,3.682-4.19,6.658,0,2.488.439,3.722,1.534,5.027,2.243,2.023,4.272,2.186,7.023,1.1.465-.219.972-.467.972-.467V813.46l-.974.558c-2.22,1.056-3.889,1.056-5.221-.192a5.979,5.979,0,0,1-1.4-3.4h8.277v-1.732c0-3.514-1.935-5.745-4.752-5.686l0,0Zm-3.353,5.632s.309-2.2,1.444-3.08a2.9,2.9,0,0,1,1.787-.63,2.7,2.7,0,0,1,1.736.646c1.041.879,1.216,3.05,1.216,3.05H85.02l0,.015Zm-37.687-2.258c-2.229-1.479-3.215-2.552-3.1-3.813.346-3.49,4.272-3.006,6.446-1.686l.015-2.347a7.712,7.712,0,0,0-2.924-.6c-2.643-.044-4.351.908-5.153,2.845-1.174,2.858-.119,5.013,3.632,7.418,2.11,1.348,3.044,2.505,3.044,3.783,0,2.64-2.9,3.576-5.887,1.9-.612-.336-1.133-.614-1.164-.614a22.255,22.255,0,0,0-.052,2.539,13.066,13.066,0,0,0,2.281.716c3.42.75,6.531-1.009,6.824-3.867.254-2.67-.628-4.077-3.965-6.276v0Zm53.122-3.257a2.961,2.961,0,0,0-2.71,1.57l-.481.82v-2.138H95.205v12.841H97.26V812.11c0-3.753.041-4.193.521-5.219.658-1.407,1.791-2.111,2.886-1.774l.735.235v-2.231h-.949ZM30.979,806.3v-8.181H28.906v18.12h8.718V814.1H30.979v-7.8Zm47.939,2.55-1.709,4.882-1.643-4.909-1.669-5.44H71.776c1.375,4.28,2.87,8.635,4.379,12.856.654.017,1.309,0,1.963,0l2.307-6.362,2.35-6.493H80.747s-.9,2.579-1.83,5.467v0ZM35.756,793.186a1.085,1.085,0,0,0,.842-.37,1.288,1.288,0,0,0,.346-.908A1.265,1.265,0,0,0,36.6,791a1.1,1.1,0,0,0-.827-.353,1.085,1.085,0,0,0-.842.367,1.288,1.288,0,0,0-.334.908,1.246,1.246,0,0,0,.334.908,1.073,1.073,0,0,0,.827.353v0Zm-.735-2.085a1.023,1.023,0,0,1,1.485,0,1.154,1.154,0,0,1,.306.807,1.188,1.188,0,0,1-.306.82.955.955,0,0,1-.735.323.933.933,0,0,1-.735-.323,1.188,1.188,0,0,1-.306-.82A1.143,1.143,0,0,1,35.022,791.1Zm.494.925h.135c.1,0,.188.1.268.292l.161.4h.253l-.2-.441c-.081-.176-.161-.279-.254-.308a.475.475,0,0,0,.279-.161.429.429,0,0,0,.092-.294.393.393,0,0,0-.119-.309.627.627,0,0,0-.429-.129h-.425v1.643h.214v-.689Zm0-.763H35.7a.446.446,0,0,1,.282.074c.051.044.064.1.064.205,0,.19-.107.279-.306.279h-.23v-.558h0Zm-34.243.617c0-.572-.015-1-.028-1.247h.012a4.032,4.032,0,0,0,.173.662l1.99,4.882h.334l1.99-4.926a4.764,4.764,0,0,0,.173-.617h.015c-.04.488-.054.911-.054,1.249v4.309h.681v-6.405H5.707l-1.829,4.455c-.067.176-.161.44-.28.79H3.57a5.456,5.456,0,0,0-.266-.76l-1.788-4.5H.607v6.405h.655v-4.294l.011,0Zm6.781.012h.588v3.989H8.054Zm.294-1.463a.4.4,0,0,0,.306-.134.488.488,0,0,0,.135-.336.443.443,0,0,0-.133-.336.409.409,0,0,0-.309-.135.4.4,0,0,0-.306.135.5.5,0,0,0-.135.336.46.46,0,0,0,.441.471h0Zm4.486,5.54v-.7a1.6,1.6,0,0,1-1.026.4,1.275,1.275,0,0,1-1.03-.471,1.936,1.936,0,0,1-.387-1.261A2.012,2.012,0,0,1,10.8,792.6a1.291,1.291,0,0,1,1.041-.484,1.607,1.607,0,0,1,.989.353v-.748a1.886,1.886,0,0,0-.962-.235,1.968,1.968,0,0,0-1.577.69,2.733,2.733,0,0,0-.585,1.816,2.469,2.469,0,0,0,.533,1.644,1.816,1.816,0,0,0,1.442.659,2.192,2.192,0,0,0,1.148-.323Zm1.682-2.127a2.221,2.221,0,0,1,.306-1.244.819.819,0,0,1,.681-.4.732.732,0,0,1,.505.148v-.763a.972.972,0,0,0-.4-.059.961.961,0,0,0-.643.252,1.565,1.565,0,0,0-.452.773H14.5v-.937h-.666v4.573H14.5v-2.347Zm3.832,2.438a1.885,1.885,0,0,0,1.508-.662,2.621,2.621,0,0,0,.56-1.759,2.653,2.653,0,0,0-.52-1.745,1.76,1.76,0,0,0-1.455-.63,1.986,1.986,0,0,0-1.508.6,2.638,2.638,0,0,0-.612,1.846,2.529,2.529,0,0,0,.533,1.686,1.856,1.856,0,0,0,1.494.661v0Zm-.949-3.726a1.259,1.259,0,0,1,1-.441,1.193,1.193,0,0,1,.989.441,2.656,2.656,0,0,1,.026,2.624,1.171,1.171,0,0,1-1,.471,1.25,1.25,0,0,1-1.015-.471,1.974,1.974,0,0,1-.374-1.291,1.914,1.914,0,0,1,.374-1.333Zm5.94,3.327a1.254,1.254,0,0,0,.389-.938,1.206,1.206,0,0,0-.306-.836,2.33,2.33,0,0,0-.776-.5,2.381,2.381,0,0,1-.628-.382.66.66,0,0,1-.173-.471.575.575,0,0,1,.2-.454.773.773,0,0,1,.536-.175,1.478,1.478,0,0,1,.949.324v-.733a1.813,1.813,0,0,0-.9-.218,1.5,1.5,0,0,0-1.056.38,1.219,1.219,0,0,0-.413.952,1.235,1.235,0,0,0,.266.82,2.143,2.143,0,0,0,.747.513,2.759,2.759,0,0,1,.681.425.585.585,0,0,1,.173.437c0,.427-.266.647-.787.647a1.565,1.565,0,0,1-1.083-.437v.79a1.832,1.832,0,0,0,1.026.279,1.712,1.712,0,0,0,1.148-.425l0,0Zm3.178-4.4a1.986,1.986,0,0,0-1.508.6,2.652,2.652,0,0,0-.612,1.846,2.538,2.538,0,0,0,.533,1.686,2.036,2.036,0,0,0,3,0,2.612,2.612,0,0,0,.562-1.758,2.669,2.669,0,0,0-.521-1.745,1.8,1.8,0,0,0-1.454-.631l0,0Zm1.3,2.4a2.106,2.106,0,0,1-.334,1.291,1.172,1.172,0,0,1-1,.471,1.25,1.25,0,0,1-1.015-.471,1.974,1.974,0,0,1-.373-1.291,2,2,0,0,1,.4-1.348,1.259,1.259,0,0,1,1-.44,1.213,1.213,0,0,1,.986.44,2.392,2.392,0,0,1,.334,1.348h0Zm1.8,2.288h.666v-3.959h.975V791.6h-.975v-.706c0-.642.226-.965.7-.965a.856.856,0,0,1,.438.118v-.661a1.122,1.122,0,0,0-.481-.072,1.182,1.182,0,0,0-.894.366,1.623,1.623,0,0,0-.429,1.187v.75h-.7v.615h.7v3.944Zm2.736-1.247c0,.895.36,1.35,1.095,1.35a1.117,1.117,0,0,0,.628-.151V795.5a.656.656,0,0,1-.429.148.541.541,0,0,1-.479-.192,1.154,1.154,0,0,1-.148-.659v-2.581h1.056V791.6H33.019V790.25c-.23.087-.455.161-.668.235V791.6h-.72v.615h.72v2.713ZM104,803.357a1.093,1.093,0,0,0-.827-.353,1.076,1.076,0,0,0-.842.37,1.3,1.3,0,0,0-.334.908,1.262,1.262,0,0,0,.332.908,1.119,1.119,0,0,0,.842.353,1.1,1.1,0,0,0,.842-.367,1.3,1.3,0,0,0,.344-.908,1.331,1.331,0,0,0-.36-.911Zm-.107,1.732a1.005,1.005,0,0,1-1.47,0,1.2,1.2,0,0,1-.306-.824,1.142,1.142,0,0,1,.294-.807,1.019,1.019,0,0,1,1.482,0,1.166,1.166,0,0,1,.306.807A1.109,1.109,0,0,1,103.9,805.089Zm-.6-.748a.562.562,0,0,0,.28-.161.43.43,0,0,0,.092-.3.392.392,0,0,0-.119-.308.629.629,0,0,0-.429-.13H102.7v1.641h.214V804.4h.133c.092,0,.184.1.266.293l.159.4h.254l-.2-.441c-.069-.192-.149-.279-.23-.308Zm-.147-.148h-.23v-.555h.188a.437.437,0,0,1,.28.072c.054.044.066.1.066.205,0,.19-.107.277-.306.277ZM65.9,791.41h.187v-1.643h.494v-.205H65.408v.205H65.9v1.643Zm1.133-1.234a3.251,3.251,0,0,0-.011-.365,1.092,1.092,0,0,0,.052.19l.574,1.409h.092l.576-1.422c.015-.044.028-.1.054-.176-.012.146-.012.264-.012.353v1.244h.2v-1.846h-.24l-.52,1.274c-.012.045-.054.134-.08.235H67.7a1.426,1.426,0,0,0-.077-.219l-.521-1.291h-.269v1.849h.188v-1.234l.011,0Z" transform="translate(0 -728.121)" fill="#231f1f"/>
</svg>
