<svg id="node-js-logo" xmlns="http://www.w3.org/2000/svg" xmlns:xlink="http://www.w3.org/1999/xlink" width="127.406" height="78.03" viewBox="0 0 127.406 78.03">
  <defs>
    <linearGradient id="linear-gradient" x1="-0.847" y1="-1.034" x2="-0.838" y2="-1.034" gradientUnits="objectBoundingBox">
      <stop offset="0.3" stop-color="#3e863d"/>
      <stop offset="0.5" stop-color="#55934f"/>
      <stop offset="0.8" stop-color="#5aad45"/>
    </linearGradient>
    <linearGradient id="linear-gradient-2" x1="-0.742" y1="-0.932" x2="-0.737" y2="-0.932" gradientUnits="objectBoundingBox">
      <stop offset="0.57" stop-color="#3e863d"/>
      <stop offset="0.72" stop-color="#619857"/>
      <stop offset="1" stop-color="#76ac64"/>
    </linearGradient>
    <linearGradient id="linear-gradient-3" x1="-2.148" y1="-2.103" x2="-2.138" y2="-2.103" gradientUnits="objectBoundingBox">
      <stop offset="0.16" stop-color="#6bbf47"/>
      <stop offset="0.38" stop-color="#79b461"/>
      <stop offset="0.47" stop-color="#75ac64"/>
      <stop offset="0.7" stop-color="#659e5a"/>
      <stop offset="0.9" stop-color="#3e863d"/>
    </linearGradient>
  </defs>
  <path id="Path_5141" data-name="Path 5141" d="M184.205,193.306a2.422,2.422,0,0,1-1.207-.323l-3.841-2.274c-.574-.321-.294-.434-.1-.5a7.756,7.756,0,0,0,1.737-.792.292.292,0,0,1,.286.02l2.951,1.751a.389.389,0,0,0,.357,0l11.506-6.641a.363.363,0,0,0,.176-.311V170.959a.369.369,0,0,0-.178-.317l-11.5-6.636a.354.354,0,0,0-.354,0l-11.5,6.636a.367.367,0,0,0-.182.314v13.277a.355.355,0,0,0,.179.308l3.151,1.82c1.711.855,2.756-.153,2.756-1.166v-13.1a.328.328,0,0,1,.334-.331h1.457a.329.329,0,0,1,.331.331V185.2c0,2.281-1.244,3.591-3.407,3.591a4.932,4.932,0,0,1-2.653-.72l-3.018-1.74a2.433,2.433,0,0,1-1.207-2.1V170.956a2.418,2.418,0,0,1,1.207-2.1L183,162.215a2.523,2.523,0,0,1,2.419,0l11.5,6.647a2.427,2.427,0,0,1,1.207,2.1v13.277a2.434,2.434,0,0,1-1.207,2.1l-11.5,6.644a2.418,2.418,0,0,1-1.213.323" transform="translate(-121.233 -115.276)" fill="#689f63"/>
  <path id="Path_5142" data-name="Path 5142" d="M215.932,199.29c-5.034,0-6.09-2.311-6.09-4.249a.331.331,0,0,1,.333-.331h1.486a.333.333,0,0,1,.328.282c.225,1.514.893,2.278,3.937,2.278,2.425,0,3.456-.548,3.456-1.834,0-.74-.294-1.29-4.061-1.659-3.151-.311-5.1-1.005-5.1-3.525,0-2.321,1.958-3.7,5.239-3.7,3.684,0,5.51,1.279,5.74,4.026a.335.335,0,0,1-.334.363h-1.495a.33.33,0,0,1-.323-.259c-.36-1.593-1.23-2.1-3.594-2.1-2.647,0-2.955.922-2.955,1.613,0,.838.363,1.083,3.934,1.555,3.537.469,5.216,1.132,5.216,3.617,0,2.506-2.091,3.943-5.737,3.943m14.014-14.081h.386a.335.335,0,0,0,.377-.351c0-.34-.233-.34-.363-.34h-.4Zm-.469-1.089h.855c.294,0,.87,0,.87.657a.572.572,0,0,1-.469.611c.343.023.366.248.412.565a2.428,2.428,0,0,0,.13.657h-.527c-.014-.115-.1-.749-.1-.783-.035-.141-.084-.21-.259-.21h-.435v1h-.481Zm-1.028,1.238a1.859,1.859,0,1,0,1.852-1.855,1.862,1.862,0,0,0-1.852,1.855m4.078.009a2.218,2.218,0,1,1-2.218-2.218,2.224,2.224,0,0,1,2.218,2.218" transform="translate(-149.406 -130.409)" fill="#689f63"/>
  <path id="Path_5143" data-name="Path 5143" d="M27.342,26.079a1.473,1.473,0,0,0-.737-1.28l-12.2-7.019a1.424,1.424,0,0,0-.67-.193H13.61a1.449,1.449,0,0,0-.674.193L.738,24.8A1.484,1.484,0,0,0,0,26.081l.027,18.9a.726.726,0,0,0,.366.636.7.7,0,0,0,.732,0l7.252-4.153a1.487,1.487,0,0,0,.737-1.279V31.358a1.469,1.469,0,0,1,.736-1.276L12.937,28.3a1.465,1.465,0,0,1,.737-.2,1.439,1.439,0,0,1,.733.2l3.086,1.778a1.47,1.47,0,0,1,.737,1.276v8.831a1.492,1.492,0,0,0,.739,1.279l7.247,4.15a.72.72,0,0,0,.737,0,.74.74,0,0,0,.365-.636Zm57.564,9.843a.366.366,0,0,1-.184.319l-4.19,2.415a.369.369,0,0,1-.368,0l-4.191-2.415a.365.365,0,0,1-.184-.319V31.085a.371.371,0,0,1,.181-.32l4.188-2.419a.372.372,0,0,1,.372,0l4.191,2.419a.367.367,0,0,1,.184.32ZM86.038.093a.737.737,0,0,0-1.1.644V19.458a.515.515,0,0,1-.773.446l-3.056-1.76a1.471,1.471,0,0,0-1.472,0l-12.2,7.043A1.47,1.47,0,0,0,66.7,26.46V40.55a1.475,1.475,0,0,0,.737,1.276l12.2,7.048a1.479,1.479,0,0,0,1.474,0l12.2-7.05a1.477,1.477,0,0,0,.737-1.276V5.433A1.477,1.477,0,0,0,93.3,4.145Zm40.636,30.864a1.473,1.473,0,0,0,.732-1.274V26.269a1.474,1.474,0,0,0-.734-1.274l-12.125-7.039a1.473,1.473,0,0,0-1.477,0L100.87,25a1.471,1.471,0,0,0-.737,1.276V40.357a1.478,1.478,0,0,0,.743,1.282L113,48.548a1.47,1.47,0,0,0,1.446.009l7.333-4.075a.736.736,0,0,0,.006-1.282l-12.275-7.045a.731.731,0,0,1-.372-.636V31.1a.731.731,0,0,1,.369-.638l3.819-2.2a.728.728,0,0,1,.734,0l3.822,2.2a.734.734,0,0,1,.369.636v3.473a.735.735,0,0,0,1.106.636Zm0,0" transform="translate(0 0)" fill="#333" fill-rule="evenodd"/>
  <path id="Path_5144" data-name="Path 5144" d="M388.4,105.105a.279.279,0,0,1,.282,0l2.341,1.351a.283.283,0,0,1,.141.245v2.7a.283.283,0,0,1-.141.245L388.679,111a.279.279,0,0,1-.282,0l-2.34-1.351a.282.282,0,0,1-.144-.245v-2.7a.279.279,0,0,1,.141-.245Zm0,0" transform="translate(-274.767 -74.807)" fill="#689f63" fill-rule="evenodd"/>
  <g id="Group_4066" data-name="Group 4066" transform="translate(29.417 12.265)">
    <path id="Path_5145" data-name="Path 5145" d="M187.586,200.029,163.915,188.6l-12.137,24.382,23.671,11.426Zm0,0" transform="translate(-151.778 -188.603)" fill="url(#linear-gradient)"/>
  </g>
  <g id="Group_4067" data-name="Group 4067" transform="translate(29.597 11.833)">
    <path id="Path_5146" data-name="Path 5146" d="M144.07,197.053l15.356,20.712,20.309-14.953L164.378,182.1Zm0,0" transform="translate(-144.07 -182.101)" fill="url(#linear-gradient-2)"/>
  </g>
  <g id="Group_4068" data-name="Group 4068" transform="translate(35.919 18.697)">
    <path id="Path_5147" data-name="Path 5147" d="M197.02,225.934v23.041h23.041V225.934Zm0,0" transform="translate(-197.02 -225.934)" fill="url(#linear-gradient-3)"/>
  </g>
</svg>
