<svg id="photoshop-cc" xmlns="http://www.w3.org/2000/svg" xmlns:xlink="http://www.w3.org/1999/xlink" width="104.362" height="101.753" viewBox="0 0 104.362 101.753">
  <defs>
    <radialGradient id="radial-gradient" cx="0.329" cy="0.224" r="0.781" gradientTransform="translate(-0.01 0.01) scale(0.973 0.968)" gradientUnits="objectBoundingBox">
      <stop offset="0" stop-color="#34364e" stop-opacity="0.98"/>
      <stop offset="1" stop-color="#0c0824"/>
    </radialGradient>
  </defs>
  <path id="Path_5123" data-name="Path 5123" d="M24.8,155.549h95.666v93.057H24.8Z" transform="translate(-20.455 -151.201)" fill="url(#radial-gradient)"/>
  <path id="Path_5124" data-name="Path 5124" d="M4.348,135.094h95.666v93.057H4.348ZM0,232.5H104.362V130.746H0Zm70.358-60.009c-3.435,0-4.609,1.739-4.609,3.174,0,1.565.783,2.653,5.392,5.044,6.827,3.3,8.958,6.479,8.958,11.132,0,6.957-5.305,10.7-12.48,10.7a18.918,18.918,0,0,1-8.914-1.87c-.3-.13-.348-.348-.348-.7v-6.392c0-.435.217-.565.522-.348a16.14,16.14,0,0,0,8.74,2.566c3.435,0,4.87-1.435,4.87-3.392,0-1.565-1-2.957-5.392-5.218-6.175-2.957-8.74-5.957-8.74-10.958,0-5.61,4.392-10.262,12-10.262a20,20,0,0,1,7.784,1.218.963.963,0,0,1,.435.87v5.957c0,.348-.217.565-.652.435a14.689,14.689,0,0,0-7.566-1.957Zm-37.4,5.175c1,.087,1.783.087,3.522.087,5.088,0,9.871-1.783,9.871-8.7,0-5.522-3.435-8.306-9.219-8.306-1.739,0-3.392.087-4.175.13Zm-7.74-23.09c0-.3.609-.522.957-.522,2.783-.13,6.914-.217,11.219-.217,12.045,0,16.741,6.61,16.741,15.046,0,11.045-8,15.785-17.828,15.785-1.652,0-2.218-.087-3.392-.087v16.7c0,.348-.13.522-.522.522H25.743c-.348,0-.522-.13-.522-.522v-46.7Z" transform="translate(0 -130.746)" fill="#31c5f0"/>
</svg>
