<svg id="react-1" xmlns="http://www.w3.org/2000/svg" width="108.435" height="108.435" viewBox="0 0 108.435 108.435">
  <path id="Path_5129" data-name="Path 5129" d="M0,0H108.435V108.435H0Z" fill="#222"/>
  <circle id="Ellipse_496" data-name="Ellipse 496" cx="9.068" cy="9.068" r="9.068" transform="translate(45.066 45.084)" fill="#00d8ff"/>
  <path id="Path_5130" data-name="Path 5130" d="M233.3,1191.9c12.172,0,23.481,1.747,32.007,4.681,10.272,3.536,16.589,8.9,16.589,13.751,0,5.058-6.694,10.755-17.725,14.408-8.34,2.763-19.316,4.207-30.871,4.207-11.849,0-23.065-1.355-31.5-4.237-10.671-3.647-17.1-9.415-17.1-14.378,0-4.815,6.032-10.135,16.161-13.665C209.419,1193.686,221.007,1191.9,233.3,1191.9Z" transform="translate(-179.166 -1156.184)" fill="none" stroke="#00d8ff" stroke-miterlimit="10" stroke-width="5"/>
  <path id="Path_5131" data-name="Path 5131" d="M852.329,408.971c6.08-10.545,13.245-19.469,20.047-25.387,8.2-7.132,16-9.925,20.2-7.5,4.381,2.526,5.972,11.171,3.626,22.555-1.774,8.606-6.005,18.834-11.78,28.845-5.918,10.263-12.7,19.3-19.406,25.171-8.489,7.423-16.7,10.108-21,7.629-4.171-2.406-5.766-10.287-3.767-20.826C841.942,430.547,846.186,419.618,852.329,408.971Z" transform="translate(-814.242 -363.983)" fill="none" stroke="#00d8ff" stroke-miterlimit="10" stroke-width="5"/>
  <path id="Path_5132" data-name="Path 5132" d="M853.2,430.606c-6.1-10.536-10.251-21.2-11.984-30.047-2.086-10.662-.611-18.816,3.59-21.246,4.378-2.535,12.661.4,21.351,8.121,6.572,5.834,13.317,14.608,19.106,24.611,5.936,10.254,10.386,20.641,12.115,29.382,2.191,11.063.417,19.517-3.878,22-4.168,2.412-11.792-.141-19.924-7.138-6.868-5.912-14.219-15.046-20.377-25.684Z" transform="translate(-815.101 -367.084)" fill="none" stroke="#00d8ff" stroke-miterlimit="10" stroke-width="5"/>
</svg>
