<svg xmlns="http://www.w3.org/2000/svg" width="136.074" height="30.154" viewBox="0 0 136.074 30.154">
  <g id="stack-overflow" transform="translate(0 -0.569)">
    <g id="Group_4069" data-name="Group 4069" transform="translate(25.988 14.13)">
      <path id="Path_5164" data-name="Path 5164" d="M101.8,65.948a5.426,5.426,0,0,1-4.042-1.42l.96-.96a4.028,4.028,0,0,0,3.062,1.14c1.621,0,2.621-.58,2.621-1.741,0-.86-.5-1.34-1.641-1.441l-1.621-.14c-1.921-.16-2.941-1.021-2.941-2.641,0-1.8,1.521-2.881,3.622-2.881a5.57,5.57,0,0,1,3.542,1.06l-.941.94a4.2,4.2,0,0,0-2.621-.78c-1.441,0-2.2.62-2.2,1.621,0,.84.48,1.341,1.721,1.441l1.581.14c1.721.16,2.9.82,2.9,2.661,0,1.9-1.621,3-4,3m8.382-.12a2.414,2.414,0,0,1-2.521-2.641V57.145h-1.24v-1.1h1.24V52.963H109.1v3.081h2.1v1.1h-2.1v6c0,.9.42,1.441,1.341,1.441h.76v1.241h-1.02m8.471-4.542h-2.761c-1.481,0-2.2.6-2.2,1.741s.7,1.681,2.261,1.681a2.878,2.878,0,0,0,2.2-.66,2.274,2.274,0,0,0,.5-1.7v-1.06Zm0,4.542v-.941a3.457,3.457,0,0,1-2.841,1.06,3.509,3.509,0,0,1-2.781-.9,2.839,2.839,0,0,1-.74-2c0-1.721,1.2-2.841,3.4-2.841h2.961v-.94c0-1.44-.72-2.161-2.521-2.161a2.585,2.585,0,0,0-2.481,1.121l-.98-.9a3.815,3.815,0,0,1,3.482-1.461c2.641,0,3.941,1.14,3.941,3.281v6.683Zm7.083.12c-2.481,0-4.362-1.681-4.362-5.042s1.881-5.042,4.362-5.042a3.9,3.9,0,0,1,3.241,1.461l-.98.92a2.7,2.7,0,0,0-2.261-1.1,2.667,2.667,0,0,0-2.281,1.121,4.224,4.224,0,0,0-.64,2.641,4.224,4.224,0,0,0,.64,2.641,2.667,2.667,0,0,0,2.281,1.121A2.724,2.724,0,0,0,128,63.547l.98.941a3.9,3.9,0,0,1-3.241,1.461m11.128-.12-3.121-5.042-1.921,2.2v2.841h-1.441V51.582h1.441v9.524l4.442-5.122h1.8l-3.342,3.762,3.922,6.082h-1.781m7.591-7.332a1.559,1.559,0,0,0-1.157-.436,1.514,1.514,0,0,0-1.138.436,3.334,3.334,0,0,0-.569,2.389,3.386,3.386,0,0,0,.569,2.408,1.514,1.514,0,0,0,1.138.436,1.558,1.558,0,0,0,1.157-.436,3.388,3.388,0,0,0,.569-2.408A3.337,3.337,0,0,0,144.456,58.5Zm1.915,6.239a4.1,4.1,0,0,1-3.072,1.214,4.049,4.049,0,0,1-3.053-1.214c-.891-.929-1.119-2.048-1.119-3.849,0-1.782.228-2.9,1.119-3.831a4.049,4.049,0,0,1,3.053-1.214,4.1,4.1,0,0,1,3.072,1.214c.891.929,1.119,2.048,1.119,3.831C147.49,62.686,147.262,63.806,146.371,64.735Zm6.659,1.1H151.1l-3.641-9.88h2.6l2.01,6.106,1.991-6.106h2.6l-3.622,9.88m9.465-6.921a1.841,1.841,0,0,0-3.3,0,2.714,2.714,0,0,0-.228,1.062h3.755A2.724,2.724,0,0,0,162.5,58.913Zm-3.527,2.75a2.04,2.04,0,0,0,2.162,2.2,2.734,2.734,0,0,0,2.238-.929l1.5,1.46a4.706,4.706,0,0,1-3.755,1.555c-2.332,0-4.57-1.062-4.57-5.063,0-3.224,1.744-5.044,4.3-5.044,2.75,0,4.3,2.01,4.3,4.722v1.1Zm12.776-3.015a1.648,1.648,0,0,0-2.9,1.233v5.954h-2.465v-9.88h2.408V56.9a3.344,3.344,0,0,1,2.484-1.062,2.98,2.98,0,0,1,2.332.929l-1.858,1.877m11.9,7.187a2.685,2.685,0,0,1-2.882-2.826v-11.1h2.465V62.857c0,.588.246.891.872.891h.948v2.086Zm-5.875-8v8h-2.465v-8h-1.024V55.959h1.024V54.726A2.7,2.7,0,0,1,178.19,51.9h1.4v2.086h-.949a.787.787,0,0,0-.872.891v1.081h1.82v1.877h-1.82Zm12.96.66a1.559,1.559,0,0,0-1.157-.436,1.514,1.514,0,0,0-1.138.436,3.335,3.335,0,0,0-.569,2.389,3.387,3.387,0,0,0,.569,2.408,1.514,1.514,0,0,0,1.138.436,1.558,1.558,0,0,0,1.157-.436,3.388,3.388,0,0,0,.569-2.408A3.337,3.337,0,0,0,190.733,58.5Zm1.915,6.239a4.1,4.1,0,0,1-3.072,1.214,4.05,4.05,0,0,1-3.053-1.214c-.891-.929-1.119-2.048-1.119-3.849,0-1.782.228-2.9,1.119-3.831a4.047,4.047,0,0,1,3.053-1.214,4.1,4.1,0,0,1,3.072,1.214c.891.929,1.119,2.048,1.119,3.831C193.767,62.686,193.54,63.806,192.648,64.735Zm12.182,1.1H202.8l-2.067-6.2-2.067,6.2h-2.029l-3.034-9.88h2.617l1.592,6.106,2.011-6.106h1.8l2.029,6.106,1.593-6.106h2.6l-3.015,9.88" transform="translate(-97.759 -51.582)" fill="#0a0b09"/>
    </g>
    <path id="Path_5165" data-name="Path 5165" d="M31.4,59.067l-11.544-2.8.56-2.309,11.544,2.8-.56,2.309" transform="translate(-14.575 -39.196)" fill="#b58f52"/>
    <path id="Path_5166" data-name="Path 5166" d="M36.976,42.015,26.4,36.61l1.081-2.116L38.057,39.9l-1.081,2.116" transform="translate(-19.38 -24.906)" fill="#c78431"/>
    <path id="Path_5167" data-name="Path 5167" d="M47.612,25.5l-8.945-7.816,1.563-1.789,8.946,7.815L47.612,25.5" transform="translate(-28.388 -11.25)" fill="#e9812c"/>
    <path id="Path_5168" data-name="Path 5168" d="M63.151,11.732,56.48,1.9,58.446.569,65.117,10.4l-1.966,1.334" transform="translate(-41.465)" fill="#e5712a"/>
    <path id="Path_5169" data-name="Path 5169" d="M29.825,75.7,17.964,75.05l.129-2.372,11.861.648L29.825,75.7" transform="translate(-13.188 -52.94)" fill="#9d8469"/>
    <path id="Path_5170" data-name="Path 5170" d="M19.1,77.85V68.007H21.47l0,12.219H0V68H2.376V77.85H19.1" transform="translate(0 -49.503)" fill="#797b7b"/>
    <path id="Path_5171" data-name="Path 5171" d="M17.84,87.22H29.8V89.6H17.84V87.22Z" transform="translate(-13.097 -63.616)" fill="#797b7b"/>
  </g>
</svg>
