<svg xmlns="http://www.w3.org/2000/svg" xmlns:xlink="http://www.w3.org/1999/xlink" width="80.874" height="81.237" viewBox="0 0 80.874 81.237">
  <defs>
    <linearGradient id="linear-gradient" x1="0.5" y1="1" x2="0.5" gradientUnits="objectBoundingBox">
      <stop offset="0" stop-color="#20b038"/>
      <stop offset="1" stop-color="#60d66a"/>
    </linearGradient>
  </defs>
  <g id="whatsapp-symbol" opacity="0.5">
    <path id="Path_5160" data-name="Path 5160" d="M69.091,11.805A40.272,40.272,0,0,0,5.713,60.377L0,81.237l21.347-5.6a40.241,40.241,0,0,0,19.242,4.9h.017A40.27,40.27,0,0,0,69.091,11.806ZM40.606,73.741h-.013a33.428,33.428,0,0,1-17.035-4.665l-1.223-.725L9.668,71.673,13.05,59.327l-.8-1.266a33.47,33.47,0,1,1,28.353,15.68Z" fill="#e0e0e0"/>
    <path id="Path_5161" data-name="Path 5161" d="M27.875,98.6,33.327,78.7a38.429,38.429,0,1,1,33.3,19.24h-.017a38.416,38.416,0,0,1-18.362-4.675L27.875,98.6Z" transform="translate(-26.026 -19.68)" fill="url(#linear-gradient)"/>
    <rect id="Rectangle_2252" data-name="Rectangle 2252" width="45.227" height="42.375" transform="translate(17.97 19.322)" fill="none" opacity="0.08"/>
    <path id="Path_5162" data-name="Path 5162" d="M317.567,324.77c-.745-1.656-1.529-1.69-2.238-1.718-.58-.025-1.243-.023-1.906-.023a3.654,3.654,0,0,0-2.652,1.244,11.149,11.149,0,0,0-3.482,8.295c0,4.894,3.564,9.622,4.061,10.286s6.881,11.026,16.99,15.013c8.4,3.313,10.111,2.654,11.935,2.488s5.884-2.405,6.713-4.728.829-4.313.58-4.729-.912-.663-1.907-1.161-5.884-2.9-6.8-3.235-1.575-.5-2.238.5-2.568,3.234-3.148,3.9-1.16.748-2.155.25a27.2,27.2,0,0,1-8-4.936,29.958,29.958,0,0,1-5.533-6.887c-.58-.995-.062-1.534.437-2.029.447-.446.995-1.161,1.492-1.742a6.818,6.818,0,0,0,.994-1.658,1.831,1.831,0,0,0-.083-1.742C320.384,331.655,318.451,326.736,317.567,324.77Z" transform="translate(-286.911 -301.606)" fill="#fff" fill-rule="evenodd"/>
    <path id="Path_5163" data-name="Path 5163" d="M75.3,11.784A39.81,39.81,0,0,0,12.647,59.8L7,80.418l21.1-5.533a39.779,39.779,0,0,0,19.021,4.844h.017A39.808,39.808,0,0,0,75.3,11.784ZM47.14,73.008h-.013A33.044,33.044,0,0,1,30.288,68.4l-1.209-.717L16.557,70.964,19.9,58.76l-.787-1.251a33.086,33.086,0,1,1,28.027,15.5Z" transform="translate(-6.536 -0.106)" fill="#fff"/>
  </g>
</svg>
